<svg version="1.1" viewBox="0.0 0.0 960.0 540.0" fill="none" stroke="none" stroke-linecap="square" stroke-miterlimit="10" xmlns:xlink="http://www.w3.org/1999/xlink" xmlns="http://www.w3.org/2000/svg"><clipPath id="p.0"><path d="m0 0l960.0 0l0 540.0l-960.0 0l0 -540.0z" clip-rule="nonzero"/></clipPath><g clip-path="url(#p.0)"><path fill="#ffffff" d="m0 0l960.0 0l0 540.0l-960.0 0z" fill-rule="evenodd"/><path fill="#000000" fill-opacity="0.0" d="m494.32608 175.83124c0.14434814 0 0.21655273 2.4957886 0.21655273 7.4873505c0 6.1810455 -1.7529602 13.147995 -5.2588806 20.900848c-3.4852905 7.7316284 -6.104431 12.383331 -7.8573914 13.955154c0.43307495 -3.2923126 1.6601562 -9.1653595 3.6812134 -17.619171c2.041687 -8.475037 4.0214844 -14.709183 5.939453 -18.702438c1.9179382 -4.014496 3.0109558 -6.021744 3.2790527 -6.021744zm50.37973 9.271576c-6.16626 0 -11.414856 1.9010315 -15.7456665 5.703125c-4.3102417 3.8020782 -6.465332 8.613098 -6.465332 14.43306c0 5.7562256 1.7322998 10.291122 5.1970215 13.604675c3.4646606 3.2922974 8.372925 4.9384613 14.7248535 4.9384613c6.455017 0 11.734497 -1.9010468 15.838501 -5.7031403c4.103943 -3.8233185 6.155945 -8.952957 6.155945 -15.3888855c0 -5.628784 -1.8870239 -9.961884 -5.6610107 -12.999313c-3.7740479 -3.0586548 -8.455444 -4.587982 -14.044312 -4.587982zm-21.891968 53.010834c0 1.5258789E-5 0 1.5258789E-5 0 1.5258789E-5l0 0c0 0 0 0 0 -1.5258789E-5zm-92.624176 0.029388428c0 0 0 0 0 0l0 0c0 0 0 0 0 0zm-246.03696 12.92276c0 0 0 0 0 0l0 0c0 0 0 0 0 0zm411.69745 2.1768646c0 0 0 0 0 0l0 0c0 0 0 0 0 0zm-364.4102 0.32644653c0 0 0 0 0 1.5258789E-5l0 0c0 -1.5258789E-5 0 -1.5258789E-5 0 -1.5258789E-5zm98.86545 2.3289642c1.1136475 0 1.959198 0.33984375 2.536621 1.0195618c0.5980835 0.65844727 0.8970947 1.6992493 0.8970947 3.1223755c0 3.5472107 -1.7941895 6.839508 -5.382599 9.876923c-2.805603 2.3885498 -6.395508 5.098877 -10.769684 8.131012l0 0c0.28085327 -6.079773 1.5918884 -11.147827 3.933136 -15.204163c2.6809998 -4.6304626 5.6094666 -6.945709 8.785431 -6.945709zm74.694305 0c1.1136475 0 1.9591675 0.33984375 2.536621 1.0195618c0.5980835 0.65844727 0.89712524 1.6992493 0.89712524 3.1223755c0 3.5472107 -1.79422 6.839508 -5.3826294 9.876923c-2.805603 2.3885498 -6.3954773 5.098877 -10.769684 8.131012l0 0c0.28085327 -6.079773 1.5918884 -11.147827 3.933136 -15.204163c2.6809998 -4.6304626 5.609497 -6.945709 8.785431 -6.945709zm374.01456 41.98465c0 0 0 0 0 0l0 0c0 0 0 0 0 0zm-259.08685 -50.29167c-1.7096558 6.634781 -3.1533203 13.683792 -4.3310547 21.147018c-1.1099854 7.0184326 -1.8051147 13.116882 -2.0853271 18.29538l0 0c-2.9950867 3.2356262 -5.647003 5.792755 -7.955719 7.6713867c-3.7121582 3.0161743 -7.8367615 4.524292 -12.37384 4.524292c-5.196991 0 -9.074127 -2.2409058 -11.631378 -6.722687c-2.5366516 -4.5030518 -3.8049622 -13.1692505 -3.8049622 -25.998627c0 -3.5896912 0.08248901 -7.317444 0.24746704 -11.183243l19.365051 0c11.254913 0 18.778137 -2.577835 22.569763 -7.7335205zm184.17944 7.064453l-5.1970215 28.5475c-1.031189 6.1598206 -2.5881958 10.662842 -4.6711426 13.509094c-2.062317 2.8462524 -3.8874512 4.2693787 -5.475403 4.2693787c-1.5467529 0 -2.7634888 -0.5416565 -3.6502686 -1.6249084c-0.8867798 -1.0832825 -1.3302002 -3.1648865 -1.3302002 -6.2447815c0 -6.754547 1.2167358 -13.116119 3.6502686 -19.084778c2.4541626 -5.989868 5.599182 -10.705292 9.435059 -14.146301c3.8358765 -3.4622498 6.2487793 -5.2039795 7.2387085 -5.2252045zm-267.73004 -0.4852295c1.908844 0.76953125 4.3040466 1.1542969 7.1856384 1.1542969l3.1862488 0c-0.18560791 3.05867 -0.27841187 7.4979706 -0.27841187 13.317917c0 3.3632507 0.099731445 6.585724 0.29919434 9.66748l0 0c-0.71398926 0.5652771 -1.3972473 1.240448 -2.0498047 2.0255432c-5.011383 6.265991 -10.899292 11.310669 -17.663635 15.134003c-6.7643433 3.8020935 -12.662537 5.703125 -17.69458 5.703125c-7.300537 0 -11.342651 -0.7328186 -12.126343 -2.1984253c12.332581 -3.1223755 21.963531 -8.252014 28.892883 -15.3888855c6.929352 -7.1368713 10.394012 -15.77121 10.394012 -25.903046c0 -1.2035828 -0.04840088 -2.3742523 -0.14520264 -3.5120087zm334.04932 28.413406c0.068603516 0.7744446 0.77056885 2.0960388 2.105957 3.9647217c1.9179688 2.63385 3.4543457 5.2677 4.609253 7.9015503c0.5628662 1.2611389 1.1871948 2.4053955 1.8729248 3.4327698l0 0c-0.1998291 -0.04623413 -0.41168213 -0.085998535 -0.6355591 -0.11920166c-2.2891235 -0.33987427 -4.3514404 -0.50979614 -6.1868896 -0.50979614c-5.774475 0 -10.26001 1.6461487 -13.456543 4.9384766c-0.10809326 0.111328125 -0.21435547 0.22338867 -0.31878662 0.33618164l0 0c1.0662231 -1.3040466 2.1108398 -2.626831 3.13385 -3.9683533c3.843689 -5.060791 6.802307 -10.38623 8.875793 -15.976349zm-12.009644 19.944702c0 0 0 0 0 0l0 0c0 0 0 0 0 0zm25.375793 -76.13365c-9.342224 0 -15.56012 3.6958923 -18.653564 11.087662c-3.7946167 8.9848175 -6.846863 16.036728 -9.156616 21.155731c-2.2891846 5.1190186 -4.5267334 9.494598 -6.7128296 13.12677c-3.4646606 5.607544 -8.630737 12.776276 -15.498169 21.506195l-2.4747925 3.1542664c-2.371643 2.9524536 -3.557495 6.2235107 -3.557495 9.813202c0 3.2285767 0.9899292 6.0217285 2.9697266 8.379456c2.0004883 2.3576965 4.619568 3.53656 7.857422 3.53656c3.6090088 0 6.939636 -1.5718079 9.991821 -4.7154236c2.9920044 -2.999817 5.8480835 -6.117798 8.568115 -9.353973l0 0c-2.1030273 2.8517761 -3.154541 6.1184387 -3.154541 9.800018c0 5.140259 2.1550903 9.6539 6.465332 13.540955c4.3101807 3.8658142 10.259949 5.798706 17.849243 5.798706c6.475586 0 12.239746 -1.7098694 17.29242 -5.129608c5.0526123 -3.4197693 8.971008 -7.88031 11.755127 -13.381653c2.7841187 -5.522583 4.1761475 -11.35318 4.1761475 -17.49173c0 -5.2677 -1.1548462 -10.014984 -3.4646606 -14.241882c-2.3098145 -4.2481384 -5.5476074 -9.207855 -9.71344 -14.87912c-2.722229 -3.398529 -4.629883 -6.0642395 -5.7229004 -7.9971313c-1.0930176 -1.9541321 -1.6395264 -3.53656 -1.6395264 -4.747284c0 -2.63385 1.0001831 -5.9898834 3.0006104 -10.0681c0.9899292 -1.8904266 1.7839355 -3.8445587 2.381958 -5.862442c0.5980835 -2.0391083 0.89715576 -3.6533966 0.89715576 -4.8428802c0 -3.164856 -1.2167969 -5.3207855 -3.6503296 -6.4677887c-2.4128418 -1.1470032 -5.6816406 -1.7205048 -9.806213 -1.7205048zm-94.99805 129.45149c-1.876709 8.79364 -4.588623 16.66333 -8.135803 23.60904c-3.5471802 6.945709 -6.104431 10.418549 -7.671753 10.418549c-0.3918457 0 -0.72180176 -0.23364258 -0.9899292 -0.70092773c-0.24749756 -0.44604492 -0.37121582 -1.401886 -0.37121582 -2.8674927c0 -4.4180603 2.0004272 -9.834442 6.0012817 -16.249146c4.0009155 -6.4147034 7.7233887 -11.151367 11.167419 -14.210022zm-189.33304 -206.96944c-8.372955 0 -15.982849 3.8445587 -22.829712 11.533707c-6.8468323 7.6678925 -12.559418 17.629776 -17.137726 29.885666c-4.5577087 12.25589 -7.7645874 24.554245 -9.6206665 36.89511l-7.424286 0c-7.1276855 0 -11.214081 3.650589 -12.259155 10.951767l0 0c-0.4716797 -0.5673523 -0.96969604 -1.116806 -1.4940796 -1.648346c-5.217621 -5.2889404 -12.043854 -7.9333954 -20.478668 -7.9333954c-9.032898 0 -17.127441 2.5063934 -24.28363 7.519211c-7.156189 4.991562 -12.714111 11.671768 -16.673737 20.040588c-3.9596252 8.368835 -5.9394226 17.374908 -5.9394226 27.018188c0 2.0322876 0.084869385 4.0037537 0.25457764 5.914459l0 0c-2.865326 2.4251404 -5.93631 4.563751 -9.212952 6.4157715c-6.764374 3.8020935 -12.662567 5.703125 -17.69458 5.703125c-7.300537 0 -11.342651 -0.7328186 -12.126343 -2.1984253c12.332581 -3.1223755 21.963531 -8.252014 28.892883 -15.3888855c6.929352 -7.1368713 10.394012 -15.77121 10.394012 -25.903046c0 -8.836121 -2.6088257 -15.898651 -7.8264465 -21.187592c-5.217621 -5.2889404 -12.043854 -7.9333954 -20.478668 -7.9333954c-9.032898 0 -17.127441 2.5063934 -24.28363 7.519211c-7.1562195 4.991562 -12.714111 11.671768 -16.673737 20.040588c-3.9596252 8.368835 -5.9394226 17.374908 -5.9394226 27.018188c0 2.4250793 0.12081909 4.7636414 0.3625183 7.0155945l0 0c-1.8532715 2.045105 -3.4500427 3.6785889 -4.7903137 4.9004517c-3.0315857 2.7825317 -5.310425 4.1737976 -6.836548 4.1737976c-1.0311584 0 -1.5467224 -1.2532043 -1.5467224 -3.759613c0 -3.3560486 1.1755066 -10.567261 3.5265503 -21.633667c2.8459778 -13.594055 4.2689514 -23.088638 4.2689514 -28.48378c0 -11.193848 -5.434143 -16.790771 -16.30249 -16.790771c-7.7542725 0 -15.797256 3.940155 -24.128967 11.82045c-3.6500092 3.451477 -6.896286 7.847275 -9.738831 13.187363c0.51187134 -3.439743 0.767807 -6.178772 0.767807 -8.217041c0 -5.331421 -1.2889404 -9.462738 -3.8668213 -12.393951c-2.5778809 -2.9312134 -6.67157 -4.39682 -12.281021 -4.39682c-5.2382507 0 -10.631165 1.9222717 -16.178772 5.7668457c-5.4978943 3.8032227 -10.740707 9.382431 -15.728455 16.737656l0 0c1.7414703 -6.850952 2.6121979 -11.4318695 2.6121979 -13.742722c0 -3.334793 -0.97961426 -5.628784 -2.9387817 -6.8819885c-1.9385834 -1.2531891 -4.557724 -1.8797913 -7.857376 -1.8797913c-5.4651184 0 -9.868134 1.1257477 -13.209061 3.3772736c-3.3202972 2.2515106 -5.6816254 5.7349854 -7.084015 10.450424c-4.8257904 15.654404 -7.238693 32.179672 -7.238693 49.57579c0 11.979767 1.1858215 21.134521 3.5574799 27.464233c2.3922577 6.3297424 6.898407 9.494598 13.518402 9.494598c5.135132 0 8.919449 -1.4337463 11.352982 -4.301239c2.454132 -2.888733 4.4545746 -7.731598 6.0013123 -14.528656c1.5879517 -6.8607483 3.7018127 -13.838318 6.3415833 -20.932709c2.6603699 -7.094391 5.217636 -12.616974 7.671768 -16.567749c0.9263153 -1.4911804 1.7101288 -2.7009583 2.3514252 -3.629303l0 0c-0.21624756 2.9034119 -0.65979004 7.118744 -1.3305817 12.645996c-1.2992554 9.579559 -1.948883 16.939453 -1.948883 22.079712c0 6.563385 1.309555 12.415192 3.9286957 17.55545c2.6191254 5.118988 6.815933 7.6784973 12.590363 7.6784973c5.217636 0 9.053528 -1.401886 11.50766 -4.205658c2.4541473 -2.803772 4.4648895 -7.667877 6.032242 -14.592346c1.8354492 -7.7316284 4.217407 -15.059662 7.145874 -21.98413c2.9490967 -6.9244995 5.702286 -12.23465 8.259537 -15.930542c0.86686707 -1.2428589 1.6043243 -2.2767334 2.2123413 -3.1016235l0 0c-0.34391785 3.0692444 -1.0710602 7.352936 -2.1814117 12.851105c-1.8148193 9.66452 -2.7222443 16.450928 -2.7222443 20.359222c0 8.326355 2.0004272 14.8472595 6.0013123 19.562683c4.0214844 4.694214 9.857819 7.0412903 17.508972 7.0412903c8.82666 0 16.622162 -2.3895874 23.386505 -7.1687317c2.7504272 -1.9518738 5.408783 -4.1021423 7.9750977 -6.450836l0 0c0.39486694 0.43743896 0.80041504 0.867218 1.2166138 1.2893372c8.125488 8.220154 19.38565 12.330231 33.78055 12.330231c10.455872 0 20.210571 -2.62323 29.2641 -7.86969c3.5845337 -2.0808716 6.848877 -4.2396545 9.79303 -6.476349l0 0c0.59332275 0.6902466 1.2121887 1.3621826 1.8566284 2.015808c8.125488 8.220154 19.385681 12.330231 33.78055 12.330231c10.455872 0 20.210571 -2.62323 29.2641 -7.86969c6.924652 -4.019867 12.654327 -8.330444 17.189026 -12.931671l0 0c6.902405 13.867584 18.71872 20.801361 35.448944 20.801361c9.177246 0 17.240845 -2.3895874 24.190826 -7.1687317c1.9904785 -1.3687744 3.9285278 -2.8377075 5.814148 -4.40683l0 0c0.21704102 0.3802185 0.44024658 0.75527954 0.6694336 1.1251526c4.3308716 6.966919 11.342712 10.450409 21.035522 10.450409c7.5338745 0 15.289856 -3.2275085 23.268005 -9.682495l0 0c0.023132324 0.062927246 0.04638672 0.12554932 0.06970215 0.18789673c2.392273 6.3297424 6.8984375 9.494598 13.518433 9.494598c5.135132 0 8.919434 -1.4337463 11.352966 -4.301239c2.4541626 -2.888733 4.444275 -7.720978 5.970398 -14.496765c1.876709 -7.710388 4.3101807 -15.038422 7.300537 -21.98413c3.0109863 -6.945709 5.76416 -12.25589 8.2595215 -15.930542c0.8078003 -1.186615 1.4997559 -2.1827087 2.0758057 -2.9883728l0 0c-0.348938 3.0610352 -1.0718384 7.307007 -2.168579 12.737854c-1.8148193 9.66452 -2.72229 16.450928 -2.72229 20.359222c0 8.326355 2.0004883 14.8472595 6.001343 19.562683c4.0214844 4.694214 9.868103 7.0412903 17.539917 7.0412903c8.80603 0 16.591187 -2.3895874 23.35559 -7.1687317c1.6481934 -1.1697083 3.2633667 -2.4106445 4.84552 -3.7228088l0 0c0.19995117 0.2666626 0.4039917 0.5305176 0.6119995 0.79159546c5.4032593 6.733307 12.652283 10.099945 21.74701 10.099945c0.829895 0 1.6593628 -0.04562378 2.4884033 -0.13687134l0 0c-12.938416 11.186127 -22.326416 21.151154 -28.164062 29.895111c-7.4449463 11.172607 -11.167419 21.814178 -11.167419 31.924774c0 7.774109 2.4129028 14.114471 7.2387085 19.021057c4.8258057 4.9278564 11.012695 7.3917847 18.56073 7.3917847c15.426025 0 27.42865 -10.259277 36.007812 -30.777802c8.579224 -20.497284 15.312622 -47.759735 20.200317 -81.78735c0.4743042 -3.6109009 1.6704712 -11.077026 3.588379 -22.398315c2.6810303 -16.907593 4.268982 -27.389893 4.763916 -31.446854c0.14440918 -1.0832825 0.21655273 -2.5064087 0.21655273 -4.269394c0 -4.2693787 -1.1136475 -7.2218323 -3.3409424 -8.857361c-2.227295 -1.6355438 -5.3413696 -2.453308 -9.342224 -2.453308c-3.4440308 0 -5.289795 0.10620117 -5.5372925 0.31860352c-0.082458496 -1.1257477 -0.90740967 -2.6019745 -2.4747314 -4.4286804c-1.5673828 -1.8266907 -4.3515015 -2.7400513 -8.352356 -2.7400513c-9.589722 0 -18.58136 3.05867 -26.974915 9.17598c-8.372986 6.0960846 -15.054871 14.114456 -20.045654 24.0551c-4.5634155 9.070068 -7.0405273 18.62851 -7.4312134 28.675323l0 0c-1.875 2.0776367 -3.4856567 3.7342834 -4.831909 4.9699707c-3.0316162 2.7825317 -5.310425 4.1737976 -6.836548 4.1737976c-1.0517578 0 -1.5776978 -1.2532043 -1.5776978 -3.759613c0 -3.3560486 1.1755371 -10.567261 3.5265503 -21.633667c2.8460083 -13.594055 4.268982 -23.088638 4.268982 -28.48378c0 -11.193848 -5.434143 -16.790771 -16.30249 -16.790771c-4.908325 0 -10.125916 1.6673889 -15.652893 5.002182c-5.5269775 3.3135529 -11.033325 8.676819 -16.519043 16.089828c-0.83758545 1.1360931 -1.6327515 2.3325348 -2.385559 3.5893555c0.062438965 -0.2601471 0.12548828 -0.5220032 0.18920898 -0.7855835c1.9797974 -7.625412 2.9696655 -12.670074 2.9696655 -15.134003c0 -3.334793 -0.9795532 -5.628784 -2.9387817 -6.8819885c-1.9385376 -1.2531891 -4.557678 -1.8797913 -7.857361 -1.8797913c-5.465088 0 -9.868103 1.1257477 -13.209045 3.3772736c-3.3203125 2.2515106 -5.6816406 5.7349854 -7.0840454 10.450424c-4.3535156 14.12236 -6.743286 28.953506 -7.1693115 44.493393l0 0c-3.0266113 3.5627747 -5.5081787 6.265869 -7.4448853 8.109222c-2.9696655 2.8249817 -5.083557 4.2375183 -6.3415527 4.2375183c-0.7836914 0 -1.4332886 -0.52041626 -1.9489136 -1.5612183c-0.49493408 -1.0620117 -0.7423706 -3.2285767 -0.7423706 -6.499634c0 -4.800415 1.4951172 -14.241913 4.4854736 -28.324493c2.4541626 -12.170914 3.6812134 -20.019363 3.6812134 -23.545319c0 -7.1581116 -4.5473633 -10.737167 -13.642151 -10.737167c-5.114502 0 -8.971008 1.0726471 -11.569519 3.2179565c-1.7524414 1.4439697 -3.223755 3.5554352 -4.4139404 6.3343964l0 0c0.0020141602 -0.12477112 0.0029907227 -0.25024414 0.0029907227 -0.3763733c0 -3.6109161 -0.8352661 -6.2660065 -2.5057373 -7.965271c-1.6704712 -1.7204895 -4.062744 -2.5807343 -7.176819 -2.5807343l-10.827087 0c12.146973 -11.066406 18.220459 -27.326172 18.220459 -48.77928c0 -8.113953 -1.8251343 -15.059662 -5.475403 -20.837128c-3.6296692 -5.7987213 -8.826691 -8.698074 -15.591034 -8.698074z" fill-rule="evenodd"/><path stroke="#073763" stroke-width="8.0" stroke-linejoin="round" stroke-linecap="butt" d="m494.32608 175.83124c0.14434814 0 0.21655273 2.4957886 0.21655273 7.4873505c0 6.1810455 -1.7529602 13.147995 -5.2588806 20.900848c-3.4852905 7.7316284 -6.104431 12.383331 -7.8573914 13.955154c0.43307495 -3.2923126 1.6601562 -9.1653595 3.6812134 -17.619171c2.041687 -8.475037 4.0214844 -14.709183 5.939453 -18.702438c1.9179382 -4.014496 3.0109558 -6.021744 3.2790527 -6.021744zm50.37973 9.271576c-6.16626 0 -11.414856 1.9010315 -15.7456665 5.703125c-4.3102417 3.8020782 -6.465332 8.613098 -6.465332 14.43306c0 5.7562256 1.7322998 10.291122 5.1970215 13.604675c3.4646606 3.2922974 8.372925 4.9384613 14.7248535 4.9384613c6.455017 0 11.734497 -1.9010468 15.838501 -5.7031403c4.103943 -3.8233185 6.155945 -8.952957 6.155945 -15.3888855c0 -5.628784 -1.8870239 -9.961884 -5.6610107 -12.999313c-3.7740479 -3.0586548 -8.455444 -4.587982 -14.044312 -4.587982zm-21.891968 53.010834c0 1.5258789E-5 0 1.5258789E-5 0 1.5258789E-5l0 0c0 0 0 0 0 -1.5258789E-5zm-92.624176 0.029388428c0 0 0 0 0 0l0 0c0 0 0 0 0 0zm-246.03696 12.92276c0 0 0 0 0 0l0 0c0 0 0 0 0 0zm411.69745 2.1768646c0 0 0 0 0 0l0 0c0 0 0 0 0 0zm-364.4102 0.32644653c0 0 0 0 0 1.5258789E-5l0 0c0 -1.5258789E-5 0 -1.5258789E-5 0 -1.5258789E-5zm98.86545 2.3289642c1.1136475 0 1.959198 0.33984375 2.536621 1.0195618c0.5980835 0.65844727 0.8970947 1.6992493 0.8970947 3.1223755c0 3.5472107 -1.7941895 6.839508 -5.382599 9.876923c-2.805603 2.3885498 -6.395508 5.098877 -10.769684 8.131012l0 0c0.28085327 -6.079773 1.5918884 -11.147827 3.933136 -15.204163c2.6809998 -4.6304626 5.6094666 -6.945709 8.785431 -6.945709zm74.694305 0c1.1136475 0 1.9591675 0.33984375 2.536621 1.0195618c0.5980835 0.65844727 0.89712524 1.6992493 0.89712524 3.1223755c0 3.5472107 -1.79422 6.839508 -5.3826294 9.876923c-2.805603 2.3885498 -6.3954773 5.098877 -10.769684 8.131012l0 0c0.28085327 -6.079773 1.5918884 -11.147827 3.933136 -15.204163c2.6809998 -4.6304626 5.609497 -6.945709 8.785431 -6.945709zm374.01456 41.98465c0 0 0 0 0 0l0 0c0 0 0 0 0 0zm-259.08685 -50.29167c-1.7096558 6.634781 -3.1533203 13.683792 -4.3310547 21.147018c-1.1099854 7.0184326 -1.8051147 13.116882 -2.0853271 18.29538l0 0c-2.9950867 3.2356262 -5.647003 5.792755 -7.955719 7.6713867c-3.7121582 3.0161743 -7.8367615 4.524292 -12.37384 4.524292c-5.196991 0 -9.074127 -2.2409058 -11.631378 -6.722687c-2.5366516 -4.5030518 -3.8049622 -13.1692505 -3.8049622 -25.998627c0 -3.5896912 0.08248901 -7.317444 0.24746704 -11.183243l19.365051 0c11.254913 0 18.778137 -2.577835 22.569763 -7.7335205zm184.17944 7.064453l-5.1970215 28.5475c-1.031189 6.1598206 -2.5881958 10.662842 -4.6711426 13.509094c-2.062317 2.8462524 -3.8874512 4.2693787 -5.475403 4.2693787c-1.5467529 0 -2.7634888 -0.5416565 -3.6502686 -1.6249084c-0.8867798 -1.0832825 -1.3302002 -3.1648865 -1.3302002 -6.2447815c0 -6.754547 1.2167358 -13.116119 3.6502686 -19.084778c2.4541626 -5.989868 5.599182 -10.705292 9.435059 -14.146301c3.8358765 -3.4622498 6.2487793 -5.2039795 7.2387085 -5.2252045zm-267.73004 -0.4852295c1.908844 0.76953125 4.3040466 1.1542969 7.1856384 1.1542969l3.1862488 0c-0.18560791 3.05867 -0.27841187 7.4979706 -0.27841187 13.317917c0 3.3632507 0.099731445 6.585724 0.29919434 9.66748l0 0c-0.71398926 0.5652771 -1.3972473 1.240448 -2.0498047 2.0255432c-5.011383 6.265991 -10.899292 11.310669 -17.663635 15.134003c-6.7643433 3.8020935 -12.662537 5.703125 -17.69458 5.703125c-7.300537 0 -11.342651 -0.7328186 -12.126343 -2.1984253c12.332581 -3.1223755 21.963531 -8.252014 28.892883 -15.3888855c6.929352 -7.1368713 10.394012 -15.77121 10.394012 -25.903046c0 -1.2035828 -0.04840088 -2.3742523 -0.14520264 -3.5120087zm334.04932 28.413406c0.068603516 0.7744446 0.77056885 2.0960388 2.105957 3.9647217c1.9179688 2.63385 3.4543457 5.2677 4.609253 7.9015503c0.5628662 1.2611389 1.1871948 2.4053955 1.8729248 3.4327698l0 0c-0.1998291 -0.04623413 -0.41168213 -0.085998535 -0.6355591 -0.11920166c-2.2891235 -0.33987427 -4.3514404 -0.50979614 -6.1868896 -0.50979614c-5.774475 0 -10.26001 1.6461487 -13.456543 4.9384766c-0.10809326 0.111328125 -0.21435547 0.22338867 -0.31878662 0.33618164l0 0c1.0662231 -1.3040466 2.1108398 -2.626831 3.13385 -3.9683533c3.843689 -5.060791 6.802307 -10.38623 8.875793 -15.976349zm-12.009644 19.944702c0 0 0 0 0 0l0 0c0 0 0 0 0 0zm25.375793 -76.13365c-9.342224 0 -15.56012 3.6958923 -18.653564 11.087662c-3.7946167 8.9848175 -6.846863 16.036728 -9.156616 21.155731c-2.2891846 5.1190186 -4.5267334 9.494598 -6.7128296 13.12677c-3.4646606 5.607544 -8.630737 12.776276 -15.498169 21.506195l-2.4747925 3.1542664c-2.371643 2.9524536 -3.557495 6.2235107 -3.557495 9.813202c0 3.2285767 0.9899292 6.0217285 2.9697266 8.379456c2.0004883 2.3576965 4.619568 3.53656 7.857422 3.53656c3.6090088 0 6.939636 -1.5718079 9.991821 -4.7154236c2.9920044 -2.999817 5.8480835 -6.117798 8.568115 -9.353973l0 0c-2.1030273 2.8517761 -3.154541 6.1184387 -3.154541 9.800018c0 5.140259 2.1550903 9.6539 6.465332 13.540955c4.3101807 3.8658142 10.259949 5.798706 17.849243 5.798706c6.475586 0 12.239746 -1.7098694 17.29242 -5.129608c5.0526123 -3.4197693 8.971008 -7.88031 11.755127 -13.381653c2.7841187 -5.522583 4.1761475 -11.35318 4.1761475 -17.49173c0 -5.2677 -1.1548462 -10.014984 -3.4646606 -14.241882c-2.3098145 -4.2481384 -5.5476074 -9.207855 -9.71344 -14.87912c-2.722229 -3.398529 -4.629883 -6.0642395 -5.7229004 -7.9971313c-1.0930176 -1.9541321 -1.6395264 -3.53656 -1.6395264 -4.747284c0 -2.63385 1.0001831 -5.9898834 3.0006104 -10.0681c0.9899292 -1.8904266 1.7839355 -3.8445587 2.381958 -5.862442c0.5980835 -2.0391083 0.89715576 -3.6533966 0.89715576 -4.8428802c0 -3.164856 -1.2167969 -5.3207855 -3.6503296 -6.4677887c-2.4128418 -1.1470032 -5.6816406 -1.7205048 -9.806213 -1.7205048zm-94.99805 129.45149c-1.876709 8.79364 -4.588623 16.66333 -8.135803 23.60904c-3.5471802 6.945709 -6.104431 10.418549 -7.671753 10.418549c-0.3918457 0 -0.72180176 -0.23364258 -0.9899292 -0.70092773c-0.24749756 -0.44604492 -0.37121582 -1.401886 -0.37121582 -2.8674927c0 -4.4180603 2.0004272 -9.834442 6.0012817 -16.249146c4.0009155 -6.4147034 7.7233887 -11.151367 11.167419 -14.210022zm-189.33304 -206.96944c-8.372955 0 -15.982849 3.8445587 -22.829712 11.533707c-6.8468323 7.6678925 -12.559418 17.629776 -17.137726 29.885666c-4.5577087 12.25589 -7.7645874 24.554245 -9.6206665 36.89511l-7.424286 0c-7.1276855 0 -11.214081 3.650589 -12.259155 10.951767l0 0c-0.4716797 -0.5673523 -0.96969604 -1.116806 -1.4940796 -1.648346c-5.217621 -5.2889404 -12.043854 -7.9333954 -20.478668 -7.9333954c-9.032898 0 -17.127441 2.5063934 -24.28363 7.519211c-7.156189 4.991562 -12.714111 11.671768 -16.673737 20.040588c-3.9596252 8.368835 -5.9394226 17.374908 -5.9394226 27.018188c0 2.0322876 0.084869385 4.0037537 0.25457764 5.914459l0 0c-2.865326 2.4251404 -5.93631 4.563751 -9.212952 6.4157715c-6.764374 3.8020935 -12.662567 5.703125 -17.69458 5.703125c-7.300537 0 -11.342651 -0.7328186 -12.126343 -2.1984253c12.332581 -3.1223755 21.963531 -8.252014 28.892883 -15.3888855c6.929352 -7.1368713 10.394012 -15.77121 10.394012 -25.903046c0 -8.836121 -2.6088257 -15.898651 -7.8264465 -21.187592c-5.217621 -5.2889404 -12.043854 -7.9333954 -20.478668 -7.9333954c-9.032898 0 -17.127441 2.5063934 -24.28363 7.519211c-7.1562195 4.991562 -12.714111 11.671768 -16.673737 20.040588c-3.9596252 8.368835 -5.9394226 17.374908 -5.9394226 27.018188c0 2.4250793 0.12081909 4.7636414 0.3625183 7.0155945l0 0c-1.8532715 2.045105 -3.4500427 3.6785889 -4.7903137 4.9004517c-3.0315857 2.7825317 -5.310425 4.1737976 -6.836548 4.1737976c-1.0311584 0 -1.5467224 -1.2532043 -1.5467224 -3.759613c0 -3.3560486 1.1755066 -10.567261 3.5265503 -21.633667c2.8459778 -13.594055 4.2689514 -23.088638 4.2689514 -28.48378c0 -11.193848 -5.434143 -16.790771 -16.30249 -16.790771c-7.7542725 0 -15.797256 3.940155 -24.128967 11.82045c-3.6500092 3.451477 -6.896286 7.847275 -9.738831 13.187363c0.51187134 -3.439743 0.767807 -6.178772 0.767807 -8.217041c0 -5.331421 -1.2889404 -9.462738 -3.8668213 -12.393951c-2.5778809 -2.9312134 -6.67157 -4.39682 -12.281021 -4.39682c-5.2382507 0 -10.631165 1.9222717 -16.178772 5.7668457c-5.4978943 3.8032227 -10.740707 9.382431 -15.728455 16.737656l0 0c1.7414703 -6.850952 2.6121979 -11.4318695 2.6121979 -13.742722c0 -3.334793 -0.97961426 -5.628784 -2.9387817 -6.8819885c-1.9385834 -1.2531891 -4.557724 -1.8797913 -7.857376 -1.8797913c-5.4651184 0 -9.868134 1.1257477 -13.209061 3.3772736c-3.3202972 2.2515106 -5.6816254 5.7349854 -7.084015 10.450424c-4.8257904 15.654404 -7.238693 32.179672 -7.238693 49.57579c0 11.979767 1.1858215 21.134521 3.5574799 27.464233c2.3922577 6.3297424 6.898407 9.494598 13.518402 9.494598c5.135132 0 8.919449 -1.4337463 11.352982 -4.301239c2.454132 -2.888733 4.4545746 -7.731598 6.0013123 -14.528656c1.5879517 -6.8607483 3.7018127 -13.838318 6.3415833 -20.932709c2.6603699 -7.094391 5.217636 -12.616974 7.671768 -16.567749c0.9263153 -1.4911804 1.7101288 -2.7009583 2.3514252 -3.629303l0 0c-0.21624756 2.9034119 -0.65979004 7.118744 -1.3305817 12.645996c-1.2992554 9.579559 -1.948883 16.939453 -1.948883 22.079712c0 6.563385 1.309555 12.415192 3.9286957 17.55545c2.6191254 5.118988 6.815933 7.6784973 12.590363 7.6784973c5.217636 0 9.053528 -1.401886 11.50766 -4.205658c2.4541473 -2.803772 4.4648895 -7.667877 6.032242 -14.592346c1.8354492 -7.7316284 4.217407 -15.059662 7.145874 -21.98413c2.9490967 -6.9244995 5.702286 -12.23465 8.259537 -15.930542c0.86686707 -1.2428589 1.6043243 -2.2767334 2.2123413 -3.1016235l0 0c-0.34391785 3.0692444 -1.0710602 7.352936 -2.1814117 12.851105c-1.8148193 9.66452 -2.7222443 16.450928 -2.7222443 20.359222c0 8.326355 2.0004272 14.8472595 6.0013123 19.562683c4.0214844 4.694214 9.857819 7.0412903 17.508972 7.0412903c8.82666 0 16.622162 -2.3895874 23.386505 -7.1687317c2.7504272 -1.9518738 5.408783 -4.1021423 7.9750977 -6.450836l0 0c0.39486694 0.43743896 0.80041504 0.867218 1.2166138 1.2893372c8.125488 8.220154 19.38565 12.330231 33.78055 12.330231c10.455872 0 20.210571 -2.62323 29.2641 -7.86969c3.5845337 -2.0808716 6.848877 -4.2396545 9.79303 -6.476349l0 0c0.59332275 0.6902466 1.2121887 1.3621826 1.8566284 2.015808c8.125488 8.220154 19.385681 12.330231 33.78055 12.330231c10.455872 0 20.210571 -2.62323 29.2641 -7.86969c6.924652 -4.019867 12.654327 -8.330444 17.189026 -12.931671l0 0c6.902405 13.867584 18.71872 20.801361 35.448944 20.801361c9.177246 0 17.240845 -2.3895874 24.190826 -7.1687317c1.9904785 -1.3687744 3.9285278 -2.8377075 5.814148 -4.40683l0 0c0.21704102 0.3802185 0.44024658 0.75527954 0.6694336 1.1251526c4.3308716 6.966919 11.342712 10.450409 21.035522 10.450409c7.5338745 0 15.289856 -3.2275085 23.268005 -9.682495l0 0c0.023132324 0.062927246 0.04638672 0.12554932 0.06970215 0.18789673c2.392273 6.3297424 6.8984375 9.494598 13.518433 9.494598c5.135132 0 8.919434 -1.4337463 11.352966 -4.301239c2.4541626 -2.888733 4.444275 -7.720978 5.970398 -14.496765c1.876709 -7.710388 4.3101807 -15.038422 7.300537 -21.98413c3.0109863 -6.945709 5.76416 -12.25589 8.2595215 -15.930542c0.8078003 -1.186615 1.4997559 -2.1827087 2.0758057 -2.9883728l0 0c-0.348938 3.0610352 -1.0718384 7.307007 -2.168579 12.737854c-1.8148193 9.66452 -2.72229 16.450928 -2.72229 20.359222c0 8.326355 2.0004883 14.8472595 6.001343 19.562683c4.0214844 4.694214 9.868103 7.0412903 17.539917 7.0412903c8.80603 0 16.591187 -2.3895874 23.35559 -7.1687317c1.6481934 -1.1697083 3.2633667 -2.4106445 4.84552 -3.7228088l0 0c0.19995117 0.2666626 0.4039917 0.5305176 0.6119995 0.79159546c5.4032593 6.733307 12.652283 10.099945 21.74701 10.099945c0.829895 0 1.6593628 -0.04562378 2.4884033 -0.13687134l0 0c-12.938416 11.186127 -22.326416 21.151154 -28.164062 29.895111c-7.4449463 11.172607 -11.167419 21.814178 -11.167419 31.924774c0 7.774109 2.4129028 14.114471 7.2387085 19.021057c4.8258057 4.9278564 11.012695 7.3917847 18.56073 7.3917847c15.426025 0 27.42865 -10.259277 36.007812 -30.777802c8.579224 -20.497284 15.312622 -47.759735 20.200317 -81.78735c0.4743042 -3.6109009 1.6704712 -11.077026 3.588379 -22.398315c2.6810303 -16.907593 4.268982 -27.389893 4.763916 -31.446854c0.14440918 -1.0832825 0.21655273 -2.5064087 0.21655273 -4.269394c0 -4.2693787 -1.1136475 -7.2218323 -3.3409424 -8.857361c-2.227295 -1.6355438 -5.3413696 -2.453308 -9.342224 -2.453308c-3.4440308 0 -5.289795 0.10620117 -5.5372925 0.31860352c-0.082458496 -1.1257477 -0.90740967 -2.6019745 -2.4747314 -4.4286804c-1.5673828 -1.8266907 -4.3515015 -2.7400513 -8.352356 -2.7400513c-9.589722 0 -18.58136 3.05867 -26.974915 9.17598c-8.372986 6.0960846 -15.054871 14.114456 -20.045654 24.0551c-4.5634155 9.070068 -7.0405273 18.62851 -7.4312134 28.675323l0 0c-1.875 2.0776367 -3.4856567 3.7342834 -4.831909 4.9699707c-3.0316162 2.7825317 -5.310425 4.1737976 -6.836548 4.1737976c-1.0517578 0 -1.5776978 -1.2532043 -1.5776978 -3.759613c0 -3.3560486 1.1755371 -10.567261 3.5265503 -21.633667c2.8460083 -13.594055 4.268982 -23.088638 4.268982 -28.48378c0 -11.193848 -5.434143 -16.790771 -16.30249 -16.790771c-4.908325 0 -10.125916 1.6673889 -15.652893 5.002182c-5.5269775 3.3135529 -11.033325 8.676819 -16.519043 16.089828c-0.83758545 1.1360931 -1.6327515 2.3325348 -2.385559 3.5893555c0.062438965 -0.2601471 0.12548828 -0.5220032 0.18920898 -0.7855835c1.9797974 -7.625412 2.9696655 -12.670074 2.9696655 -15.134003c0 -3.334793 -0.9795532 -5.628784 -2.9387817 -6.8819885c-1.9385376 -1.2531891 -4.557678 -1.8797913 -7.857361 -1.8797913c-5.465088 0 -9.868103 1.1257477 -13.209045 3.3772736c-3.3203125 2.2515106 -5.6816406 5.7349854 -7.0840454 10.450424c-4.3535156 14.12236 -6.743286 28.953506 -7.1693115 44.493393l0 0c-3.0266113 3.5627747 -5.5081787 6.265869 -7.4448853 8.109222c-2.9696655 2.8249817 -5.083557 4.2375183 -6.3415527 4.2375183c-0.7836914 0 -1.4332886 -0.52041626 -1.9489136 -1.5612183c-0.49493408 -1.0620117 -0.7423706 -3.2285767 -0.7423706 -6.499634c0 -4.800415 1.4951172 -14.241913 4.4854736 -28.324493c2.4541626 -12.170914 3.6812134 -20.019363 3.6812134 -23.545319c0 -7.1581116 -4.5473633 -10.737167 -13.642151 -10.737167c-5.114502 0 -8.971008 1.0726471 -11.569519 3.2179565c-1.7524414 1.4439697 -3.223755 3.5554352 -4.4139404 6.3343964l0 0c0.0020141602 -0.12477112 0.0029907227 -0.25024414 0.0029907227 -0.3763733c0 -3.6109161 -0.8352661 -6.2660065 -2.5057373 -7.965271c-1.6704712 -1.7204895 -4.062744 -2.5807343 -7.176819 -2.5807343l-10.827087 0c12.146973 -11.066406 18.220459 -27.326172 18.220459 -48.77928c0 -8.113953 -1.8251343 -15.059662 -5.475403 -20.837128c-3.6296692 -5.7987213 -8.826691 -8.698074 -15.591034 -8.698074z" fill-rule="evenodd"/></g></svg>