<svg version="1.1" viewBox="0.0 0.0 960.0 540.0" fill="none" stroke="none" stroke-linecap="square" stroke-miterlimit="10" xmlns:xlink="http://www.w3.org/1999/xlink" xmlns="http://www.w3.org/2000/svg"><clipPath id="p.0"><path d="m0 0l960.0 0l0 540.0l-960.0 0l0 -540.0z" clip-rule="nonzero"/></clipPath><g clip-path="url(#p.0)"><path fill="#ffffff" d="m0 0l960.0 0l0 540.0l-960.0 0z" fill-rule="evenodd"/><path fill="#000000" fill-opacity="0.0" d="m828.0747 188.13873c0.14440918 0 0.21655273 2.4957886 0.21655273 7.4873505c0 6.1810455 -1.7529297 13.147995 -5.25885 20.900848c-3.4852905 7.7316284 -6.104431 12.383331 -7.857422 13.955139c0.43310547 -3.2922974 1.6602173 -9.1653595 3.6812134 -17.619156c2.041687 -8.475037 4.0215454 -14.709183 5.939453 -18.702438c1.9179688 -4.014496 3.0109863 -6.021744 3.2790527 -6.021744zm-552.49646 9.271561c-6.1662903 0 -11.414856 1.9010468 -15.745697 5.7031403c-4.310211 3.8020782 -6.465317 8.613098 -6.465317 14.43306c0 5.7562256 1.7323456 10.291122 5.197006 13.60466c3.4646912 3.2923126 8.372955 4.9384766 14.7248535 4.9384766c6.455017 0 11.734497 -1.9010468 15.838501 -5.7031403c4.1039734 -3.8233185 6.1559753 -8.952957 6.1559753 -15.3888855c0 -5.628784 -1.8869934 -9.961884 -5.6610107 -12.999313c-3.7740173 -3.0586548 -8.455475 -4.5879974 -14.044312 -4.5879974zm489.01926 -21.792953c0.515625 0 0.77337646 2.6126099 0.77337646 7.8378143c-0.12371826 10.662842 -2.8150635 22.196533 -8.073914 34.601105c-5.23822 12.404572 -9.723755 20.784027 -13.456543 25.138382c0.8249512 -5.055298 2.8666382 -14.061356 6.125061 -27.018173c3.2584229 -12.956833 6.3724976 -22.950592 9.342224 -29.981262c2.9697266 -7.0519104 4.732971 -10.577866 5.289795 -10.577866zm-625.48944 87.75595c0 0 0 0 0 0l0 0c0 0 0 0 0 0zm426.52234 2.1768494c0 0 0 0 0 0l0 0c0 0 0 0 0 0zm-238.9078 0c0 0 0 0 0 0l0 0c0 0 0 0 0 0zm-140.32726 0.32644653c0 0 0 0 0 3.0517578E-5l0 0c0 -3.0517578E-5 0 -3.0517578E-5 0 -3.0517578E-5zm577.2753 -11.045074c0.047668457 4.062744 1.088562 7.203827 3.1226196 9.423279c2.0829468 2.2515259 5.588867 3.3772888 10.517761 3.3772888l3.1862793 0c-0.14685059 2.4195251 -0.2355957 5.7029724 -0.2662964 9.850372l0 0c-0.07611084 0.008575439 -0.15216064 0.017425537 -0.22808838 0.026550293c-1.2167969 0.1274414 -2.3510742 0.2548828 -3.402832 0.38232422c-6.0425415 0.89212036 -11.497314 1.3381653 -16.36438 1.3381653c-1.3817749 0 -2.6088257 -0.0637207 -3.6812134 -0.19116211c-3.6915283 -0.2548828 -6.836548 -0.38232422 -9.435059 -0.38232422c-1.7684937 0 -3.4777832 0.6094971 -5.1279907 1.8285217l0 0c8.258789 -8.679382 15.485168 -17.230377 21.6792 -25.653015zm-21.6792 25.653015c0 3.0517578E-5 0 3.0517578E-5 0 3.0517578E-5l0 0c0 0 0 0 0 -3.0517578E-5zm-3.7753906 3.9035034c-0.07714844 0.09918213 -0.15368652 0.19876099 -0.22961426 0.2987976l0 0c0.0024414062 -0.024261475 0.0048828125 -0.04852295 0.0073242188 -0.07281494c0.074157715 -0.0753479 0.1482544 -0.15066528 0.22229004 -0.22598267zm-311.9294 -16.182465c1.113617 0 1.9591675 0.33984375 2.536621 1.0195618c0.5980835 0.65844727 0.8970947 1.6992493 0.8970947 3.1223755c0 3.5472107 -1.7941895 6.839508 -5.382599 9.876923c-2.805603 2.3885498 -6.395508 5.098877 -10.769684 8.131012l0 0c0.28082275 -6.079773 1.5918884 -11.147827 3.933136 -15.204163c2.6809998 -4.6304626 5.6094666 -6.945709 8.785431 -6.945709zm240.11716 -1.2425842l-6.0322266 30.968964c-1.010498 5.012787 -2.4953613 8.8255005 -4.45459 11.43811c-1.9591675 2.6126099 -3.6812134 3.9189148 -5.1660767 3.9189148c-1.5466919 0 -2.7634888 -0.5416565 -3.6502686 -1.6249084c-0.8867798 -1.0832825 -1.3302002 -3.1648865 -1.3302002 -6.2447815c0 -6.754547 1.2167969 -13.116119 3.6502686 -19.084778c2.4335327 -5.989868 5.599182 -10.705322 9.496948 -14.146301c3.918335 -3.4622498 6.4137573 -5.2039795 7.486145 -5.2252197zm69.83295 52.82312c0.5621948 3.3557434 1.0653687 6.638275 1.5095215 9.847595c1.3198853 9.367126 1.9797974 19.052917 1.9797974 29.057281c0 10.853973 -0.5774536 16.281006 -1.7322998 16.281006c0 0.016113281 -3.6621094E-4 0.024169922 -0.0010375977 0.024169922c-0.019958496 0 -0.31860352 -6.316559 -0.8960571 -18.949646c-0.52838135 -11.971222 -0.81500244 -24.058014 -0.8599243 -36.260406zm32.35132 -171.69672c-12.580078 0 -23.706238 8.889236 -33.378418 26.667694c-9.651611 17.778473 -17.148071 39.730743 -22.48944 65.85681c-4.118225 20.204895 -6.6427 40.174408 -7.5734253 59.90851l0 0c-2.5845337 2.973938 -4.7233276 5.2540894 -6.416382 6.8404236c-2.9696655 2.7825317 -5.1557007 4.1737976 -6.5581055 4.1737976c-0.2886963 0 -0.55682373 -0.14868164 -0.8043213 -0.44607544c-0.24743652 -0.31860352 -0.37121582 -0.9664612 -0.37121582 -1.943512c0 -5.5863037 1.4436646 -15.76062 4.3308716 -30.522888c1.9385376 -10.577881 2.907837 -17.364288 2.907837 -20.359222c0 -7.285568 -4.423645 -10.928345 -13.270935 -10.928345c-3.1759033 0 -4.959839 0.04248047 -5.3516846 0.1274414c-0.20617676 -0.9983063 -1.0930176 -2.4108124 -2.6603394 -4.2375183c-1.5673828 -1.8267059 -4.3514404 -2.7400513 -8.352356 -2.7400513c-9.589722 0 -18.58136 3.0586548 -26.974915 9.17598c-8.372986 6.0960846 -15.05481 14.114456 -20.045593 24.0551c-1.1768799 2.3390503 -2.2149658 4.7105713 -3.1143188 7.1145935l0 0c-1.736145 1.1618347 -3.1987915 1.7427979 -4.3878784 1.7427979c-0.5362549 0 -0.8043213 -0.9239807 -0.8043213 -2.7719116c0 -1.040802 0.48461914 -4.057007 1.4539185 -9.048553c1.1755371 -6.7970276 1.7633057 -11.161987 1.7633057 -13.09491c0 -11.193832 -5.434204 -16.790771 -16.302551 -16.790771c-4.908264 0 -10.125916 1.6674042 -15.652893 5.0021973c-5.5269775 3.3135529 -11.033325 8.676819 -16.519043 16.089844c-0.83758545 1.1360779 -1.6327515 2.3325195 -2.385498 3.589325c0.06237793 -0.26013184 0.12542725 -0.5220032 0.18914795 -0.785553c1.9797974 -7.6254272 2.9697266 -12.67009 2.9697266 -15.134018c0 -3.334793 -0.97961426 -5.628784 -2.9387817 -6.8819885c-1.9385986 -1.2531891 -4.5577393 -1.8798065 -7.857422 -1.8798065c-5.465088 0 -9.868103 1.1257629 -13.209045 3.3772736c-3.3203125 2.2515259 -5.6816406 5.7350006 -7.0839844 10.450439c-4.3115234 13.98613 -6.6970215 28.667374 -7.156494 44.043808l0 0c-3.7282104 3.8277588 -7.4470215 6.8506165 -11.156494 9.068573c-5.5063477 3.2710571 -10.507446 4.9065857 -15.003265 4.9065857c-10.146545 0 -15.219818 -6.2128906 -15.219818 -18.638702c0 -5.0340576 0.67025757 -9.579559 2.0107422 -13.636536c1.3611145 -4.0569763 3.0109863 -7.105011 4.949524 -9.1441345c1.9385681 -2.0603333 3.8049622 -3.0905151 5.599182 -3.0905151c0.37121582 0 0.598053 0.04248047 0.680542 0.1274414c0.08248901 0.08496094 0.12374878 0.44604492 0.12374878 1.0832825c0 1.2532043 -0.26809692 2.708191 -0.8042908 4.3649597c-0.16500854 0.6584778 -0.3918457 1.6567688 -0.6805725 2.994934c-0.26809692 1.316925 -0.40216064 2.5807495 -0.40216064 3.7914734c0 3.3984985 1.1549072 6.0429688 3.4646912 7.9334106c2.3303833 1.8691711 5.1557617 2.803772 8.476074 2.803772c5.23822 0 9.321594 -2.3683472 12.250061 -7.105011c2.9490967 -4.7579346 4.423645 -10.269897 4.423645 -16.535889c0 -7.7528687 -2.3097534 -14.156937 -6.9293213 -19.212234c-4.619568 -5.0552826 -10.971466 -7.5829315 -19.055695 -7.5829315c-7.8780212 0 -15.364166 2.357727 -22.458496 7.073166c-7.0737 4.715439 -12.7966 11.363785 -17.16867 19.945023c-4.351471 8.559998 -6.5272217 18.46878 -6.5272217 29.726349c0 1.3643494 0.042297363 2.7014465 0.12686157 4.011322l0 0c-2.7755737 2.3168945 -5.742096 4.3677063 -8.899597 6.1523743c-6.764374 3.8020935 -12.662567 5.703125 -17.69458 5.703125c-7.3005676 0 -11.342682 -0.7328186 -12.126343 -2.1984253c12.332581 -3.1223755 21.963531 -8.252014 28.892883 -15.3888855c6.929352 -7.1368713 10.394012 -15.77121 10.394012 -25.903046c0 -8.836121 -2.6088257 -15.898651 -7.8264465 -21.187592c-5.217621 -5.2889404 -12.043854 -7.9334106 -20.478668 -7.9334106c-9.032898 0 -17.127441 2.5064087 -24.28363 7.519211c-7.1562195 4.991577 -12.714111 11.671768 -16.673737 20.040604c-3.9596252 8.368835 -5.939453 17.374908 -5.939453 27.018188c0 2.4253845 0.12088013 4.76416 0.36260986 7.016388l0 0c-1.8478699 2.0447083 -3.4373474 3.677948 -4.768402 4.899658c-3.0315857 2.7825317 -5.310425 4.1737976 -6.8365173 4.1737976c-1.0517883 0 -1.5776672 -1.2532349 -1.5776672 -3.759613c0 -3.3560486 1.1755066 -10.567261 3.5265503 -21.633667c2.8459778 -13.594055 4.2689514 -23.088654 4.2689514 -28.483795c0 -11.193832 -5.4341736 -16.790771 -16.30252 -16.790771c-4.908264 0 -10.125916 1.6674042 -15.652863 5.0021973c-5.5269775 3.3135529 -11.033325 8.676819 -16.519073 16.089844c-0.83755493 1.1360779 -1.632721 2.3325195 -2.3855286 3.589325l0 0c0.062408447 -0.26013184 0.12545776 -0.5220032 0.18917847 -0.785553c1.9798279 -7.6254272 2.9697266 -12.67009 2.9697266 -15.134018c0 -3.334793 -0.97958374 -5.628784 -2.9387817 -6.8819885c-1.9385681 -1.2531891 -4.557678 -1.8798065 -7.8573914 -1.8798065c-5.465088 0 -9.868134 1.1257629 -13.209045 3.3772736c-3.3203125 2.2515259 -5.681671 5.7350006 -7.084015 10.450439c-4.3535156 14.12236 -6.7433167 28.953506 -7.1693726 44.493393l0 0c-3.0265503 3.5627747 -5.508148 6.265869 -7.444824 8.109192c-2.9697266 2.8250122 -5.0835876 4.237549 -6.3415833 4.237549c-0.7836914 0 -1.4333191 -0.52041626 -1.948883 -1.5612183c-0.4949646 -1.0620422 -0.74243164 -3.2285767 -0.74243164 -6.499634c0 -4.800415 1.4951782 -14.241913 4.485504 -28.324493c2.4541626 -12.170929 3.6812134 -20.019363 3.6812134 -23.545319c0 -7.1581116 -4.5473633 -10.737183 -13.64212 -10.737183c-5.1145325 0 -8.971039 1.0726624 -11.56955 3.2179718c-2.5778809 2.1240692 -4.5473785 5.69252 -5.908493 10.705322c-2.3304138 8.092697 -4.238037 16.843887 -5.7229004 26.253494c-1.1377258 7.1936035 -1.8395844 13.420715 -2.105545 18.681396l0 0c-2.9144897 3.365631 -5.3177795 5.910919 -7.2098846 7.6358643c-3.0315857 2.7825317 -5.31044 4.1737976 -6.836548 4.1737976c-1.0311584 0 -1.5467224 -1.2532349 -1.5467224 -3.759613c0 -3.3560486 1.1755066 -10.567261 3.526535 -21.633667c2.8459778 -13.594055 4.2689667 -23.088654 4.2689667 -28.483795c0 -11.193832 -5.4341583 -16.790771 -16.302505 -16.790771c-7.7542725 0 -15.797256 3.940155 -24.128967 11.820465c-3.649994 3.451477 -6.896286 7.8472595 -9.738815 13.187347c0.51187134 -3.4397278 0.76779175 -6.1787415 0.76779175 -8.217041c0 -5.3314056 -1.2889404 -9.462723 -3.866806 -12.393936c-2.5778809 -2.9312134 -6.6715393 -4.3968353 -12.281021 -4.3968353c-5.2382507 0 -10.631165 1.922287 -16.178787 5.766861c-5.4978943 3.8032227 -10.740692 9.382431 -15.728439 16.737656l0 0c1.7414551 -6.850952 2.6121826 -11.4318695 2.6121826 -13.742722c0 -3.334793 -0.979599 -5.628784 -2.9387817 -6.8819885c-1.9385681 -1.2531891 -4.5577087 -1.8798065 -7.857376 -1.8798065c-5.465111 0 -9.868126 1.1257629 -13.209053 3.3772736c-3.3203049 2.2515259 -5.681633 5.7350006 -7.084015 10.450439c-4.8257904 15.654404 -7.2386856 32.179672 -7.2386856 49.57579c0 11.979767 1.1858139 21.134521 3.5574722 27.464233c2.3922653 6.3297424 6.898407 9.494598 13.518402 9.494598c5.1351395 0 8.9194565 -1.4337463 11.352989 -4.301239c2.454132 -2.888733 4.4545746 -7.731598 6.001297 -14.528656c1.5879669 -6.8607483 3.7018127 -13.838318 6.3415833 -20.932709c2.6603851 -7.094391 5.2176514 -12.616974 7.6717834 -16.567749c0.9263153 -1.4911804 1.7101288 -2.7009583 2.35141 -3.629303l0 0c-0.2162323 2.9034119 -0.6597748 7.118744 -1.3305817 12.645996c-1.2992401 9.579559 -1.9488678 16.939453 -1.9488678 22.079712c0 6.563385 1.309555 12.415192 3.9286804 17.55545c2.6191406 5.118988 6.815933 7.6784973 12.590378 7.6784973c5.217636 0 9.053513 -1.401886 11.507645 -4.205658c2.454132 -2.803772 4.4648895 -7.667877 6.032242 -14.592377c1.8354492 -7.731598 4.217407 -15.059631 7.1458893 -21.98413c2.9490814 -6.924469 5.7022552 -12.234619 8.2595215 -15.930511c0.86686707 -1.2428589 1.6043091 -2.2767334 2.2123718 -3.1016235l0 0c-0.3439331 3.0692444 -1.0710754 7.352936 -2.181427 12.851105c-1.8148499 9.66452 -2.7222443 16.450928 -2.7222443 20.359222c0 8.326355 2.0004425 14.8472595 6.001297 19.562683c4.0214996 4.694214 9.857834 7.0412903 17.508972 7.0412903c8.82666 0 16.622177 -2.3895874 23.38652 -7.1687317c1.8922424 -1.342865 3.7408905 -2.779602 5.54599 -4.310272l0 0c0.19963074 0.3471985 0.40434265 0.6900635 0.61413574 1.028595c4.330826 6.966919 11.342667 10.450409 21.035507 10.450409c7.533844 0 15.289856 -3.2275085 23.267975 -9.682495l0 0c0.023132324 0.062927246 0.04638672 0.12554932 0.06976318 0.18789673c2.392273 6.3297424 6.898407 9.494598 13.518402 9.494598c5.135132 0 8.919464 -1.4337463 11.352966 -4.301239c2.4541626 -2.888733 4.444275 -7.720978 5.9703674 -14.496796c1.876709 -7.7103577 4.310211 -15.038391 7.3005676 -21.98413c3.0109863 -6.945709 5.76416 -12.255859 8.2595215 -15.930511c0.8078003 -1.186615 1.4997253 -2.1827393 2.0758057 -2.9883728l0 0c-0.3489685 3.0610352 -1.0718384 7.3069763 -2.1686096 12.737854c-1.8148193 9.66452 -2.722229 16.450928 -2.722229 20.359222c0 8.326355 2.0004272 14.8472595 6.0013123 19.562683c4.0214844 4.694214 9.868103 7.0412903 17.539886 7.0412903c8.80603 0 16.591248 -2.3895874 23.35559 -7.1687317c2.7521667 -1.953125 5.41214 -4.104889 7.9799805 -6.4552917l0 0c0.39614868 0.43893433 0.80303955 0.87020874 1.2206726 1.2937927c8.125488 8.220154 19.38565 12.330231 33.78055 12.330231c10.455872 0 20.210571 -2.62323 29.2641 -7.86969c3.3258362 -1.9306946 6.3760376 -3.9284668 9.150543 -5.993286l0 0c0.51394653 0.60879517 1.0479431 1.2046814 1.6020203 1.7876282c7.671753 8.050232 18.272003 12.075348 31.80072 12.075348c8.331726 0 16.910889 -2.1877747 25.737549 -6.563385c2.5759888 -1.2739868 5.0462646 -2.7046509 7.4107056 -4.291992l0 0c0.15338135 0.46722412 0.3125 0.9208374 0.47735596 1.3607788c2.392273 6.3297424 6.8983765 9.494598 13.518372 9.494598c5.135132 0 8.919495 -1.4337463 11.353027 -4.301239c2.4541016 -2.888733 4.444214 -7.720978 5.970337 -14.496796c1.876709 -7.731598 4.279297 -15.059631 7.2077637 -21.98413c2.9284668 -6.924469 5.7022705 -12.234619 8.321411 -15.930511c1.0882568 -1.5356445 2.0002441 -2.7522278 2.736023 -3.6498413l0 0c-0.046691895 0.5463257 -0.10284424 1.1575623 -0.16845703 1.8337708c-0.3918457 2.1028137 -0.58776855 4.2587585 -0.58776855 6.4677734c0 7.1581116 2.1241455 12.893097 6.3724976 17.204987c4.268982 4.311859 10.3012085 6.4677734 18.09674 6.4677734c2.6279907 0 5.180786 -0.28103638 7.6585083 -0.84310913l0 0c0.9345093 7.510193 3.491211 13.887329 7.670166 19.131378c5.4031982 6.733307 12.652222 10.099945 21.746948 10.099945c11.466431 0 19.457886 -3.855194 23.974304 -11.565552c0.16497803 0.7434082 2.2994995 2.8568726 6.4034424 6.340332c4.124634 3.48349 8.754517 5.2252197 13.889648 5.2252197c5.635681 0 11.263306 -1.9607239 16.88269 -5.882141l0 0c0.7383423 18.845581 2.7334595 33.858734 5.9852905 45.0394c4.2070923 14.486145 11.858276 21.729218 22.953491 21.729218c8.702881 0 15.560059 -4.216278 20.571472 -12.648834c5.0113525 -8.411316 7.51709 -20.040588 7.51709 -34.887848c0 -6.563385 -0.5465088 -14.836639 -1.6395264 -24.819763c-1.0930176 -9.983154 -2.062317 -17.077545 -2.907837 -21.283203l0 0c2.020996 0.4248352 4.6917114 0.63723755 8.012024 0.63723755c7.13855 0 12.88739 -0.9869995 17.24646 -2.9609985l0 0c1.5201416 6.662628 3.7110596 12.662415 6.572632 17.99942c6.10437 11.38501 15.962219 17.077515 29.573425 17.077515c9.321594 0 17.63269 -3.1117554 24.933228 -9.335297c2.4129028 -1.9966125 4.2071533 -4.4499207 5.3826294 -7.359894c1.1755371 -2.9099731 1.7633057 -5.8836975 1.7633057 -8.921112c0 -3.1860962 -0.7527466 -6.15979 -2.2582397 -8.921082c-1.4848633 -2.7825317 -3.763733 -4.1737976 -6.836548 -4.1737976c-2.4129028 0 -4.6917725 1.0089417 -6.836548 3.0267944c-1.9591675 1.7842102 -4.114258 3.2286072 -6.465332 4.3330994c-2.3510132 1.1045227 -4.248291 1.6567993 -5.6919556 1.6567993c-2.8253174 0 -5.0114136 -0.7859192 -6.5581055 -2.357727c-1.526123 -1.5930481 -2.722229 -4.768524 -3.58844 -9.526459c-0.8661499 -4.7579346 -1.2992554 -11.703644 -1.2992554 -20.837128c0 -3.5896912 0.08251953 -7.317444 0.24749756 -11.183228l19.365051 0c16.972778 0 25.459106 -5.8624573 25.459106 -17.58731c0 -3.6109161 -0.8352051 -6.2660065 -2.5056763 -7.965271c-1.6704712 -1.7204895 -4.062744 -2.5807495 -7.176819 -2.5807495l-10.827087 0c12.146973 -11.066391 18.220459 -27.326157 18.220459 -48.779266c0 -8.113953 -1.8251343 -15.059662 -5.475403 -20.837143c-3.6296387 -5.798706 -8.82666 -8.698059 -15.591064 -8.698059c-8.372925 0 -15.982849 3.8445587 -22.82965 11.533707c-6.846863 7.6678925 -12.559448 17.629776 -17.137756 29.885666c-4.557678 12.25589 -7.7645874 24.554245 -9.6206665 36.895096l-7.4243164 0c-0.8417969 0 -1.6411743 0.05091858 -2.3980713 0.15275574l0 0c11.828125 -19.786163 17.742188 -38.8369 17.742188 -57.152176c0 -10.04686 -1.9695435 -18.288254 -5.9085083 -24.724182c-3.9390259 -6.457184 -9.6206665 -9.6857605 -17.044922 -9.6857605z" fill-rule="evenodd"/><path stroke="#073763" stroke-width="8.0" stroke-linejoin="round" stroke-linecap="butt" d="m828.0747 188.13873c0.14440918 0 0.21655273 2.4957886 0.21655273 7.4873505c0 6.1810455 -1.7529297 13.147995 -5.25885 20.900848c-3.4852905 7.7316284 -6.104431 12.383331 -7.857422 13.955139c0.43310547 -3.2922974 1.6602173 -9.1653595 3.6812134 -17.619156c2.041687 -8.475037 4.0215454 -14.709183 5.939453 -18.702438c1.9179688 -4.014496 3.0109863 -6.021744 3.2790527 -6.021744zm-552.49646 9.271561c-6.1662903 0 -11.414856 1.9010468 -15.745697 5.7031403c-4.310211 3.8020782 -6.465317 8.613098 -6.465317 14.43306c0 5.7562256 1.7323456 10.291122 5.197006 13.60466c3.4646912 3.2923126 8.372955 4.9384766 14.7248535 4.9384766c6.455017 0 11.734497 -1.9010468 15.838501 -5.7031403c4.1039734 -3.8233185 6.1559753 -8.952957 6.1559753 -15.3888855c0 -5.628784 -1.8869934 -9.961884 -5.6610107 -12.999313c-3.7740173 -3.0586548 -8.455475 -4.5879974 -14.044312 -4.5879974zm489.01926 -21.792953c0.515625 0 0.77337646 2.6126099 0.77337646 7.8378143c-0.12371826 10.662842 -2.8150635 22.196533 -8.073914 34.601105c-5.23822 12.404572 -9.723755 20.784027 -13.456543 25.138382c0.8249512 -5.055298 2.8666382 -14.061356 6.125061 -27.018173c3.2584229 -12.956833 6.3724976 -22.950592 9.342224 -29.981262c2.9697266 -7.0519104 4.732971 -10.577866 5.289795 -10.577866zm-625.48944 87.75595c0 0 0 0 0 0l0 0c0 0 0 0 0 0zm426.52234 2.1768494c0 0 0 0 0 0l0 0c0 0 0 0 0 0zm-238.9078 0c0 0 0 0 0 0l0 0c0 0 0 0 0 0zm-140.32726 0.32644653c0 0 0 0 0 3.0517578E-5l0 0c0 -3.0517578E-5 0 -3.0517578E-5 0 -3.0517578E-5zm577.2753 -11.045074c0.047668457 4.062744 1.088562 7.203827 3.1226196 9.423279c2.0829468 2.2515259 5.588867 3.3772888 10.517761 3.3772888l3.1862793 0c-0.14685059 2.4195251 -0.2355957 5.7029724 -0.2662964 9.850372l0 0c-0.07611084 0.008575439 -0.15216064 0.017425537 -0.22808838 0.026550293c-1.2167969 0.1274414 -2.3510742 0.2548828 -3.402832 0.38232422c-6.0425415 0.89212036 -11.497314 1.3381653 -16.36438 1.3381653c-1.3817749 0 -2.6088257 -0.0637207 -3.6812134 -0.19116211c-3.6915283 -0.2548828 -6.836548 -0.38232422 -9.435059 -0.38232422c-1.7684937 0 -3.4777832 0.6094971 -5.1279907 1.8285217l0 0c8.258789 -8.679382 15.485168 -17.230377 21.6792 -25.653015zm-21.6792 25.653015c0 3.0517578E-5 0 3.0517578E-5 0 3.0517578E-5l0 0c0 0 0 0 0 -3.0517578E-5zm-3.7753906 3.9035034c-0.07714844 0.09918213 -0.15368652 0.19876099 -0.22961426 0.2987976l0 0c0.0024414062 -0.024261475 0.0048828125 -0.04852295 0.0073242188 -0.07281494c0.074157715 -0.0753479 0.1482544 -0.15066528 0.22229004 -0.22598267zm-311.9294 -16.182465c1.113617 0 1.9591675 0.33984375 2.536621 1.0195618c0.5980835 0.65844727 0.8970947 1.6992493 0.8970947 3.1223755c0 3.5472107 -1.7941895 6.839508 -5.382599 9.876923c-2.805603 2.3885498 -6.395508 5.098877 -10.769684 8.131012l0 0c0.28082275 -6.079773 1.5918884 -11.147827 3.933136 -15.204163c2.6809998 -4.6304626 5.6094666 -6.945709 8.785431 -6.945709zm240.11716 -1.2425842l-6.0322266 30.968964c-1.010498 5.012787 -2.4953613 8.8255005 -4.45459 11.43811c-1.9591675 2.6126099 -3.6812134 3.9189148 -5.1660767 3.9189148c-1.5466919 0 -2.7634888 -0.5416565 -3.6502686 -1.6249084c-0.8867798 -1.0832825 -1.3302002 -3.1648865 -1.3302002 -6.2447815c0 -6.754547 1.2167969 -13.116119 3.6502686 -19.084778c2.4335327 -5.989868 5.599182 -10.705322 9.496948 -14.146301c3.918335 -3.4622498 6.4137573 -5.2039795 7.486145 -5.2252197zm69.83295 52.82312c0.5621948 3.3557434 1.0653687 6.638275 1.5095215 9.847595c1.3198853 9.367126 1.9797974 19.052917 1.9797974 29.057281c0 10.853973 -0.5774536 16.281006 -1.7322998 16.281006c0 0.016113281 -3.6621094E-4 0.024169922 -0.0010375977 0.024169922c-0.019958496 0 -0.31860352 -6.316559 -0.8960571 -18.949646c-0.52838135 -11.971222 -0.81500244 -24.058014 -0.8599243 -36.260406zm32.35132 -171.69672c-12.580078 0 -23.706238 8.889236 -33.378418 26.667694c-9.651611 17.778473 -17.148071 39.730743 -22.48944 65.85681c-4.118225 20.204895 -6.6427 40.174408 -7.5734253 59.90851l0 0c-2.5845337 2.973938 -4.7233276 5.2540894 -6.416382 6.8404236c-2.9696655 2.7825317 -5.1557007 4.1737976 -6.5581055 4.1737976c-0.2886963 0 -0.55682373 -0.14868164 -0.8043213 -0.44607544c-0.24743652 -0.31860352 -0.37121582 -0.9664612 -0.37121582 -1.943512c0 -5.5863037 1.4436646 -15.76062 4.3308716 -30.522888c1.9385376 -10.577881 2.907837 -17.364288 2.907837 -20.359222c0 -7.285568 -4.423645 -10.928345 -13.270935 -10.928345c-3.1759033 0 -4.959839 0.04248047 -5.3516846 0.1274414c-0.20617676 -0.9983063 -1.0930176 -2.4108124 -2.6603394 -4.2375183c-1.5673828 -1.8267059 -4.3514404 -2.7400513 -8.352356 -2.7400513c-9.589722 0 -18.58136 3.0586548 -26.974915 9.17598c-8.372986 6.0960846 -15.05481 14.114456 -20.045593 24.0551c-1.1768799 2.3390503 -2.2149658 4.7105713 -3.1143188 7.1145935l0 0c-1.736145 1.1618347 -3.1987915 1.7427979 -4.3878784 1.7427979c-0.5362549 0 -0.8043213 -0.9239807 -0.8043213 -2.7719116c0 -1.040802 0.48461914 -4.057007 1.4539185 -9.048553c1.1755371 -6.7970276 1.7633057 -11.161987 1.7633057 -13.09491c0 -11.193832 -5.434204 -16.790771 -16.302551 -16.790771c-4.908264 0 -10.125916 1.6674042 -15.652893 5.0021973c-5.5269775 3.3135529 -11.033325 8.676819 -16.519043 16.089844c-0.83758545 1.1360779 -1.6327515 2.3325195 -2.385498 3.589325c0.06237793 -0.26013184 0.12542725 -0.5220032 0.18914795 -0.785553c1.9797974 -7.6254272 2.9697266 -12.67009 2.9697266 -15.134018c0 -3.334793 -0.97961426 -5.628784 -2.9387817 -6.8819885c-1.9385986 -1.2531891 -4.5577393 -1.8798065 -7.857422 -1.8798065c-5.465088 0 -9.868103 1.1257629 -13.209045 3.3772736c-3.3203125 2.2515259 -5.6816406 5.7350006 -7.0839844 10.450439c-4.3115234 13.98613 -6.6970215 28.667374 -7.156494 44.043808l0 0c-3.7282104 3.8277588 -7.4470215 6.8506165 -11.156494 9.068573c-5.5063477 3.2710571 -10.507446 4.9065857 -15.003265 4.9065857c-10.146545 0 -15.219818 -6.2128906 -15.219818 -18.638702c0 -5.0340576 0.67025757 -9.579559 2.0107422 -13.636536c1.3611145 -4.0569763 3.0109863 -7.105011 4.949524 -9.1441345c1.9385681 -2.0603333 3.8049622 -3.0905151 5.599182 -3.0905151c0.37121582 0 0.598053 0.04248047 0.680542 0.1274414c0.08248901 0.08496094 0.12374878 0.44604492 0.12374878 1.0832825c0 1.2532043 -0.26809692 2.708191 -0.8042908 4.3649597c-0.16500854 0.6584778 -0.3918457 1.6567688 -0.6805725 2.994934c-0.26809692 1.316925 -0.40216064 2.5807495 -0.40216064 3.7914734c0 3.3984985 1.1549072 6.0429688 3.4646912 7.9334106c2.3303833 1.8691711 5.1557617 2.803772 8.476074 2.803772c5.23822 0 9.321594 -2.3683472 12.250061 -7.105011c2.9490967 -4.7579346 4.423645 -10.269897 4.423645 -16.535889c0 -7.7528687 -2.3097534 -14.156937 -6.9293213 -19.212234c-4.619568 -5.0552826 -10.971466 -7.5829315 -19.055695 -7.5829315c-7.8780212 0 -15.364166 2.357727 -22.458496 7.073166c-7.0737 4.715439 -12.7966 11.363785 -17.16867 19.945023c-4.351471 8.559998 -6.5272217 18.46878 -6.5272217 29.726349c0 1.3643494 0.042297363 2.7014465 0.12686157 4.011322l0 0c-2.7755737 2.3168945 -5.742096 4.3677063 -8.899597 6.1523743c-6.764374 3.8020935 -12.662567 5.703125 -17.69458 5.703125c-7.3005676 0 -11.342682 -0.7328186 -12.126343 -2.1984253c12.332581 -3.1223755 21.963531 -8.252014 28.892883 -15.3888855c6.929352 -7.1368713 10.394012 -15.77121 10.394012 -25.903046c0 -8.836121 -2.6088257 -15.898651 -7.8264465 -21.187592c-5.217621 -5.2889404 -12.043854 -7.9334106 -20.478668 -7.9334106c-9.032898 0 -17.127441 2.5064087 -24.28363 7.519211c-7.1562195 4.991577 -12.714111 11.671768 -16.673737 20.040604c-3.9596252 8.368835 -5.939453 17.374908 -5.939453 27.018188c0 2.4253845 0.12088013 4.76416 0.36260986 7.016388l0 0c-1.8478699 2.0447083 -3.4373474 3.677948 -4.768402 4.899658c-3.0315857 2.7825317 -5.310425 4.1737976 -6.8365173 4.1737976c-1.0517883 0 -1.5776672 -1.2532349 -1.5776672 -3.759613c0 -3.3560486 1.1755066 -10.567261 3.5265503 -21.633667c2.8459778 -13.594055 4.2689514 -23.088654 4.2689514 -28.483795c0 -11.193832 -5.4341736 -16.790771 -16.30252 -16.790771c-4.908264 0 -10.125916 1.6674042 -15.652863 5.0021973c-5.5269775 3.3135529 -11.033325 8.676819 -16.519073 16.089844c-0.83755493 1.1360779 -1.632721 2.3325195 -2.3855286 3.589325l0 0c0.062408447 -0.26013184 0.12545776 -0.5220032 0.18917847 -0.785553c1.9798279 -7.6254272 2.9697266 -12.67009 2.9697266 -15.134018c0 -3.334793 -0.97958374 -5.628784 -2.9387817 -6.8819885c-1.9385681 -1.2531891 -4.557678 -1.8798065 -7.8573914 -1.8798065c-5.465088 0 -9.868134 1.1257629 -13.209045 3.3772736c-3.3203125 2.2515259 -5.681671 5.7350006 -7.084015 10.450439c-4.3535156 14.12236 -6.7433167 28.953506 -7.1693726 44.493393l0 0c-3.0265503 3.5627747 -5.508148 6.265869 -7.444824 8.109192c-2.9697266 2.8250122 -5.0835876 4.237549 -6.3415833 4.237549c-0.7836914 0 -1.4333191 -0.52041626 -1.948883 -1.5612183c-0.4949646 -1.0620422 -0.74243164 -3.2285767 -0.74243164 -6.499634c0 -4.800415 1.4951782 -14.241913 4.485504 -28.324493c2.4541626 -12.170929 3.6812134 -20.019363 3.6812134 -23.545319c0 -7.1581116 -4.5473633 -10.737183 -13.64212 -10.737183c-5.1145325 0 -8.971039 1.0726624 -11.56955 3.2179718c-2.5778809 2.1240692 -4.5473785 5.69252 -5.908493 10.705322c-2.3304138 8.092697 -4.238037 16.843887 -5.7229004 26.253494c-1.1377258 7.1936035 -1.8395844 13.420715 -2.105545 18.681396l0 0c-2.9144897 3.365631 -5.3177795 5.910919 -7.2098846 7.6358643c-3.0315857 2.7825317 -5.31044 4.1737976 -6.836548 4.1737976c-1.0311584 0 -1.5467224 -1.2532349 -1.5467224 -3.759613c0 -3.3560486 1.1755066 -10.567261 3.526535 -21.633667c2.8459778 -13.594055 4.2689667 -23.088654 4.2689667 -28.483795c0 -11.193832 -5.4341583 -16.790771 -16.302505 -16.790771c-7.7542725 0 -15.797256 3.940155 -24.128967 11.820465c-3.649994 3.451477 -6.896286 7.8472595 -9.738815 13.187347c0.51187134 -3.4397278 0.76779175 -6.1787415 0.76779175 -8.217041c0 -5.3314056 -1.2889404 -9.462723 -3.866806 -12.393936c-2.5778809 -2.9312134 -6.6715393 -4.3968353 -12.281021 -4.3968353c-5.2382507 0 -10.631165 1.922287 -16.178787 5.766861c-5.4978943 3.8032227 -10.740692 9.382431 -15.728439 16.737656l0 0c1.7414551 -6.850952 2.6121826 -11.4318695 2.6121826 -13.742722c0 -3.334793 -0.979599 -5.628784 -2.9387817 -6.8819885c-1.9385681 -1.2531891 -4.5577087 -1.8798065 -7.857376 -1.8798065c-5.465111 0 -9.868126 1.1257629 -13.209053 3.3772736c-3.3203049 2.2515259 -5.681633 5.7350006 -7.084015 10.450439c-4.8257904 15.654404 -7.2386856 32.179672 -7.2386856 49.57579c0 11.979767 1.1858139 21.134521 3.5574722 27.464233c2.3922653 6.3297424 6.898407 9.494598 13.518402 9.494598c5.1351395 0 8.9194565 -1.4337463 11.352989 -4.301239c2.454132 -2.888733 4.4545746 -7.731598 6.001297 -14.528656c1.5879669 -6.8607483 3.7018127 -13.838318 6.3415833 -20.932709c2.6603851 -7.094391 5.2176514 -12.616974 7.6717834 -16.567749c0.9263153 -1.4911804 1.7101288 -2.7009583 2.35141 -3.629303l0 0c-0.2162323 2.9034119 -0.6597748 7.118744 -1.3305817 12.645996c-1.2992401 9.579559 -1.9488678 16.939453 -1.9488678 22.079712c0 6.563385 1.309555 12.415192 3.9286804 17.55545c2.6191406 5.118988 6.815933 7.6784973 12.590378 7.6784973c5.217636 0 9.053513 -1.401886 11.507645 -4.205658c2.454132 -2.803772 4.4648895 -7.667877 6.032242 -14.592377c1.8354492 -7.731598 4.217407 -15.059631 7.1458893 -21.98413c2.9490814 -6.924469 5.7022552 -12.234619 8.2595215 -15.930511c0.86686707 -1.2428589 1.6043091 -2.2767334 2.2123718 -3.1016235l0 0c-0.3439331 3.0692444 -1.0710754 7.352936 -2.181427 12.851105c-1.8148499 9.66452 -2.7222443 16.450928 -2.7222443 20.359222c0 8.326355 2.0004425 14.8472595 6.001297 19.562683c4.0214996 4.694214 9.857834 7.0412903 17.508972 7.0412903c8.82666 0 16.622177 -2.3895874 23.38652 -7.1687317c1.8922424 -1.342865 3.7408905 -2.779602 5.54599 -4.310272l0 0c0.19963074 0.3471985 0.40434265 0.6900635 0.61413574 1.028595c4.330826 6.966919 11.342667 10.450409 21.035507 10.450409c7.533844 0 15.289856 -3.2275085 23.267975 -9.682495l0 0c0.023132324 0.062927246 0.04638672 0.12554932 0.06976318 0.18789673c2.392273 6.3297424 6.898407 9.494598 13.518402 9.494598c5.135132 0 8.919464 -1.4337463 11.352966 -4.301239c2.4541626 -2.888733 4.444275 -7.720978 5.9703674 -14.496796c1.876709 -7.7103577 4.310211 -15.038391 7.3005676 -21.98413c3.0109863 -6.945709 5.76416 -12.255859 8.2595215 -15.930511c0.8078003 -1.186615 1.4997253 -2.1827393 2.0758057 -2.9883728l0 0c-0.3489685 3.0610352 -1.0718384 7.3069763 -2.1686096 12.737854c-1.8148193 9.66452 -2.722229 16.450928 -2.722229 20.359222c0 8.326355 2.0004272 14.8472595 6.0013123 19.562683c4.0214844 4.694214 9.868103 7.0412903 17.539886 7.0412903c8.80603 0 16.591248 -2.3895874 23.35559 -7.1687317c2.7521667 -1.953125 5.41214 -4.104889 7.9799805 -6.4552917l0 0c0.39614868 0.43893433 0.80303955 0.87020874 1.2206726 1.2937927c8.125488 8.220154 19.38565 12.330231 33.78055 12.330231c10.455872 0 20.210571 -2.62323 29.2641 -7.86969c3.3258362 -1.9306946 6.3760376 -3.9284668 9.150543 -5.993286l0 0c0.51394653 0.60879517 1.0479431 1.2046814 1.6020203 1.7876282c7.671753 8.050232 18.272003 12.075348 31.80072 12.075348c8.331726 0 16.910889 -2.1877747 25.737549 -6.563385c2.5759888 -1.2739868 5.0462646 -2.7046509 7.4107056 -4.291992l0 0c0.15338135 0.46722412 0.3125 0.9208374 0.47735596 1.3607788c2.392273 6.3297424 6.8983765 9.494598 13.518372 9.494598c5.135132 0 8.919495 -1.4337463 11.353027 -4.301239c2.4541016 -2.888733 4.444214 -7.720978 5.970337 -14.496796c1.876709 -7.731598 4.279297 -15.059631 7.2077637 -21.98413c2.9284668 -6.924469 5.7022705 -12.234619 8.321411 -15.930511c1.0882568 -1.5356445 2.0002441 -2.7522278 2.736023 -3.6498413l0 0c-0.046691895 0.5463257 -0.10284424 1.1575623 -0.16845703 1.8337708c-0.3918457 2.1028137 -0.58776855 4.2587585 -0.58776855 6.4677734c0 7.1581116 2.1241455 12.893097 6.3724976 17.204987c4.268982 4.311859 10.3012085 6.4677734 18.09674 6.4677734c2.6279907 0 5.180786 -0.28103638 7.6585083 -0.84310913l0 0c0.9345093 7.510193 3.491211 13.887329 7.670166 19.131378c5.4031982 6.733307 12.652222 10.099945 21.746948 10.099945c11.466431 0 19.457886 -3.855194 23.974304 -11.565552c0.16497803 0.7434082 2.2994995 2.8568726 6.4034424 6.340332c4.124634 3.48349 8.754517 5.2252197 13.889648 5.2252197c5.635681 0 11.263306 -1.9607239 16.88269 -5.882141l0 0c0.7383423 18.845581 2.7334595 33.858734 5.9852905 45.0394c4.2070923 14.486145 11.858276 21.729218 22.953491 21.729218c8.702881 0 15.560059 -4.216278 20.571472 -12.648834c5.0113525 -8.411316 7.51709 -20.040588 7.51709 -34.887848c0 -6.563385 -0.5465088 -14.836639 -1.6395264 -24.819763c-1.0930176 -9.983154 -2.062317 -17.077545 -2.907837 -21.283203l0 0c2.020996 0.4248352 4.6917114 0.63723755 8.012024 0.63723755c7.13855 0 12.88739 -0.9869995 17.24646 -2.9609985l0 0c1.5201416 6.662628 3.7110596 12.662415 6.572632 17.99942c6.10437 11.38501 15.962219 17.077515 29.573425 17.077515c9.321594 0 17.63269 -3.1117554 24.933228 -9.335297c2.4129028 -1.9966125 4.2071533 -4.4499207 5.3826294 -7.359894c1.1755371 -2.9099731 1.7633057 -5.8836975 1.7633057 -8.921112c0 -3.1860962 -0.7527466 -6.15979 -2.2582397 -8.921082c-1.4848633 -2.7825317 -3.763733 -4.1737976 -6.836548 -4.1737976c-2.4129028 0 -4.6917725 1.0089417 -6.836548 3.0267944c-1.9591675 1.7842102 -4.114258 3.2286072 -6.465332 4.3330994c-2.3510132 1.1045227 -4.248291 1.6567993 -5.6919556 1.6567993c-2.8253174 0 -5.0114136 -0.7859192 -6.5581055 -2.357727c-1.526123 -1.5930481 -2.722229 -4.768524 -3.58844 -9.526459c-0.8661499 -4.7579346 -1.2992554 -11.703644 -1.2992554 -20.837128c0 -3.5896912 0.08251953 -7.317444 0.24749756 -11.183228l19.365051 0c16.972778 0 25.459106 -5.8624573 25.459106 -17.58731c0 -3.6109161 -0.8352051 -6.2660065 -2.5056763 -7.965271c-1.6704712 -1.7204895 -4.062744 -2.5807495 -7.176819 -2.5807495l-10.827087 0c12.146973 -11.066391 18.220459 -27.326157 18.220459 -48.779266c0 -8.113953 -1.8251343 -15.059662 -5.475403 -20.837143c-3.6296387 -5.798706 -8.82666 -8.698059 -15.591064 -8.698059c-8.372925 0 -15.982849 3.8445587 -22.82965 11.533707c-6.846863 7.6678925 -12.559448 17.629776 -17.137756 29.885666c-4.557678 12.25589 -7.7645874 24.554245 -9.6206665 36.895096l-7.4243164 0c-0.8417969 0 -1.6411743 0.05091858 -2.3980713 0.15275574l0 0c11.828125 -19.786163 17.742188 -38.8369 17.742188 -57.152176c0 -10.04686 -1.9695435 -18.288254 -5.9085083 -24.724182c-3.9390259 -6.457184 -9.6206665 -9.6857605 -17.044922 -9.6857605z" fill-rule="evenodd"/></g></svg>