<svg version="1.1" viewBox="0.0 0.0 960.0 540.0" fill="none" stroke="none" stroke-linecap="square" stroke-miterlimit="10" xmlns:xlink="http://www.w3.org/1999/xlink" xmlns="http://www.w3.org/2000/svg"><clipPath id="p.0"><path d="m0 0l960.0 0l0 540.0l-960.0 0l0 -540.0z" clip-rule="nonzero"/></clipPath><g clip-path="url(#p.0)"><path fill="#ffffff" d="m0 0l960.0 0l0 540.0l-960.0 0z" fill-rule="evenodd"/><path fill="#000000" fill-opacity="0.0" d="m805.9113 127.378136c-12.224731 0 -22.630066 3.7688522 -31.216064 11.306572c-8.545044 7.5377197 -12.817566 17.075668 -12.817566 28.613846c0 11.411865 3.4343872 20.402374 10.303162 26.971558c6.8687134 6.527069 16.599487 9.790604 29.1922 9.790604c12.797119 0 23.263794 -3.7688599 31.400024 -11.30658c8.136169 -7.5798187 12.204285 -17.74942 12.204285 -30.508804c0 -11.15918 -3.7410278 -19.74965 -11.223022 -25.771408c-7.4820557 -6.063858 -16.763062 -9.095787 -27.843018 -9.095787zm-620.2239 130.77304c0 0 0 0 0 0l0 0c0 0 0 0 0 0zm93.74762 4.96286c0 0 0 0 0 0l0 0c0 0 0 0 0 0zm192.65277 8.578461c-0.26116943 0.9786072 -0.39175415 2.0163574 -0.39175415 3.1132812c0 11.032837 2.350891 21.560394 7.0527344 31.582611c4.7427063 10.022186 10.200897 17.180939 16.374603 21.476166c-1.2265625 7.7061462 -4.149872 14.191101 -8.769928 19.454895c-4.5791626 5.221649 -9.730713 7.832489 -15.454681 7.832489c-4.6609497 0 -9.035706 -2.8424377 -13.124237 -8.527313c-4.0885315 -5.6848755 -6.1328125 -14.7595825 -6.1328125 -27.224213c0 -16.422974 2.6984253 -28.677002 8.095306 -36.762177c3.6721191 -5.5298767 7.789032 -9.178436 12.350769 -10.94574zm191.1326 -6.4246826l-11.959045 61.396606c-2.003357 9.937988 -4.9471436 17.496765 -8.831238 22.6763c-3.8840942 5.1795654 -7.2980347 7.769348 -10.241821 7.769348c-3.0664062 0 -5.4786377 -1.073822 -7.2366943 -3.2214355c-1.7580566 -2.1476135 -2.637085 -6.274414 -2.637085 -12.380402c0 -13.391022 2.4122314 -26.00299 7.2366943 -37.835968c4.824463 -11.875061 11.100403 -21.22351 18.827759 -28.04535c7.7682495 -6.8639526 12.715393 -10.316986 14.841431 -10.3591zm4.354248 -52.490295c-19.011719 0 -36.83777 6.063858 -53.47815 18.191574c-16.599487 12.085617 -29.846375 27.982193 -39.74066 47.689743c-0.17608643 0.35006714 -0.35064697 0.7005005 -0.5236206 1.0513l0 0c-8.847656 2.1254272 -15.438477 3.3330688 -19.77246 3.6229248c-1.6762695 -16.507172 -9.015259 -32.31952 -22.016785 -47.437073c-13.001587 -15.159653 -30.234802 -22.739487 -51.699677 -22.739487c-17.130981 0 -32.749237 4.758438 -46.854706 14.275345c-14.064606 9.474777 -25.021881 22.549988 -32.871887 39.225616c-7.850006 16.633484 -11.775024 35.372528 -11.775024 56.21704c0 4.3450317 0.23153687 8.611145 0.6945801 12.798248l0 0c-3.6638489 4.0419617 -6.821411 7.271515 -9.472717 9.688568c-6.0101624 5.516449 -10.527985 8.274658 -13.553528 8.274658c-2.044281 0 -3.0664062 -2.4845276 -3.0664062 -7.4535217c0 -6.653412 2.3304749 -20.949799 6.9914246 -42.88919c5.6421814 -26.9505 8.463287 -45.773712 8.463287 -56.469696c0 -22.192047 -10.773315 -33.28807 -32.319946 -33.28807c-15.372925 0 -31.318237 7.811432 -47.835968 23.434296c-7.236206 6.8426514 -13.671997 15.557404 -19.307373 26.144241c1.014801 -6.819397 1.5221863 -12.249542 1.5221863 -16.290466c0 -10.569641 -2.5553284 -18.76007 -7.6660156 -24.571274c-5.1106873 -5.811203 -13.22644 -8.716797 -24.34729 -8.716797c-10.384888 0 -21.076431 3.8109589 -32.07463 11.432907c-10.899658 7.539963 -21.293625 18.600876 -31.18187 33.18277l0 0c3.4524994 -13.582184 5.178726 -22.663925 5.178726 -27.24524c0 -6.6112976 -1.9420471 -11.159195 -5.826172 -13.643692c-3.843216 -2.484497 -9.03566 -3.7267456 -15.577362 -3.7267456c-10.834625 0 -19.563675 2.2318268 -26.187119 6.695511c-6.5825653 4.463684 -11.263962 11.369736 -14.044159 20.718185c-9.567192 31.035172 -14.350784 63.79689 -14.350784 98.28511c0 23.750122 2.3509216 41.899597 7.0527344 54.448425c4.7427216 12.548798 13.676178 18.823212 26.800415 18.823212c10.180481 0 17.682968 -2.8424072 22.507431 -8.527283c4.865387 -5.7269897 8.831268 -15.3280945 11.897675 -28.803345c3.148178 -13.601593 7.3389587 -27.434784 12.572266 -41.499573c5.274231 -14.064758 10.344025 -25.013428 15.209396 -32.845917c1.8363953 -2.9563293 3.3902893 -5.3547363 4.6616974 -7.1951904l0 0c-0.42868042 5.756073 -1.3079681 14.113068 -2.6378784 25.070953c-2.5757751 18.991669 -3.8636627 33.582855 -3.8636627 43.7735c0 13.012054 2.596222 24.613373 7.788666 34.804047c5.192459 10.148529 13.51265 15.222809 24.960571 15.222809c10.344025 0 17.948715 -2.7792664 22.814072 -8.337799c4.8653564 -5.5585327 8.851715 -15.201752 11.959015 -28.929657c3.638794 -15.3280945 8.361053 -29.85611 14.166779 -43.584015c5.8466187 -13.727936 11.30484 -24.255463 16.374634 -31.582611c1.7185974 -2.4639893 3.1806335 -4.5136414 4.386017 -6.1490173l0 0c-0.68182373 6.0848083 -2.1233826 14.577301 -4.3246765 25.47757c-3.597931 19.160126 -5.396881 32.61432 -5.396881 40.36258c0 16.507202 3.9658813 29.434998 11.897644 38.783447c7.972687 9.306366 19.543243 13.959503 34.71176 13.959503c17.498962 0 32.953674 -4.7373657 46.364105 -14.212158c5.1942444 -3.6861877 10.2229 -7.729309 15.085907 -12.129364l0 0c4.345825 5.176178 9.357269 9.766754 15.034424 13.7716675c11.938538 8.379913 26.26889 12.569855 42.991028 12.569855c19.829468 0 37.45108 -7.158722 52.86487 -21.476166c15.454712 -14.359558 25.308105 -31.22467 29.56018 -50.595337c3.048523 -0.12976074 6.116028 -0.36611938 9.202454 -0.7090454l0 0c-0.0045166016 0.46740723 -0.006713867 0.93536377 -0.006713867 1.4038696c0 20.844513 5.3355103 37.96228 16.006653 51.353302c10.711975 13.348938 25.08319 20.023376 43.113647 20.023376c22.73236 0 38.57544 -7.642975 47.529358 -22.928955c0.3270874 1.4738464 4.558716 5.6638184 12.694946 12.569885c8.177063 6.906067 17.355835 10.35907 27.536316 10.35907c11.208801 0 22.401245 -3.91214 33.577393 -11.736389l0 0c0.8421631 1.5454102 1.8270264 2.9519653 2.9545288 4.2197266c4.4973755 5.011139 11.918091 7.5166626 22.262085 7.5166626c10.793762 0 19.154846 -2.3370972 25.083252 -7.011322c5.9283447 -4.674225 9.219666 -12.380402 9.87384 -23.11847c2.2486572 -37.141174 8.994751 -83.27283 20.238281 -138.39502c0.5723877 -4.1688995 0.85858154 -7.0955505 0.85858154 -8.779968c0 -14.443787 -8.01355 -21.665665 -24.04065 -21.665665c-11.897644 0 -20.912903 2.1265564 -27.045715 6.3796844c-6.1328125 4.253113 -10.446228 11.411835 -12.940247 21.476181c-6.6279907 27.542648 -11.916992 57.1696 -15.866882 88.880875l0 0c-5.720276 6.6480713 -10.400757 11.677765 -14.041565 15.089081c-5.887512 5.516449 -10.221313 8.274658 -13.001526 8.274658c-0.57244873 0 -1.1039429 -0.2947693 -1.5945435 -0.8843384c-0.49066162 -0.63165283 -0.7359619 -1.9160156 -0.7359619 -3.8530579c0 -11.074982 2.8619995 -31.245758 8.5859375 -60.5123c3.8432617 -20.970856 5.7648926 -34.42505 5.7648926 -40.36258c0 -14.443787 -8.7699585 -21.665665 -26.309814 -21.665665c-6.2963867 0 -9.832947 0.08421326 -10.609741 0.25265503c-0.4088745 -1.9791718 -2.1669922 -4.7794952 -5.274231 -8.40097c-3.1072998 -3.6214752 -8.626831 -5.432205 -16.558655 -5.432205z" fill-rule="evenodd"/><path stroke="#073763" stroke-width="16.0" stroke-linejoin="round" stroke-linecap="butt" d="m805.9113 127.378136c-12.224731 0 -22.630066 3.7688522 -31.216064 11.306572c-8.545044 7.5377197 -12.817566 17.075668 -12.817566 28.613846c0 11.411865 3.4343872 20.402374 10.303162 26.971558c6.8687134 6.527069 16.599487 9.790604 29.1922 9.790604c12.797119 0 23.263794 -3.7688599 31.400024 -11.30658c8.136169 -7.5798187 12.204285 -17.74942 12.204285 -30.508804c0 -11.15918 -3.7410278 -19.74965 -11.223022 -25.771408c-7.4820557 -6.063858 -16.763062 -9.095787 -27.843018 -9.095787zm-620.2239 130.77304c0 0 0 0 0 0l0 0c0 0 0 0 0 0zm93.74762 4.96286c0 0 0 0 0 0l0 0c0 0 0 0 0 0zm192.65277 8.578461c-0.26116943 0.9786072 -0.39175415 2.0163574 -0.39175415 3.1132812c0 11.032837 2.350891 21.560394 7.0527344 31.582611c4.7427063 10.022186 10.200897 17.180939 16.374603 21.476166c-1.2265625 7.7061462 -4.149872 14.191101 -8.769928 19.454895c-4.5791626 5.221649 -9.730713 7.832489 -15.454681 7.832489c-4.6609497 0 -9.035706 -2.8424377 -13.124237 -8.527313c-4.0885315 -5.6848755 -6.1328125 -14.7595825 -6.1328125 -27.224213c0 -16.422974 2.6984253 -28.677002 8.095306 -36.762177c3.6721191 -5.5298767 7.789032 -9.178436 12.350769 -10.94574zm191.1326 -6.4246826l-11.959045 61.396606c-2.003357 9.937988 -4.9471436 17.496765 -8.831238 22.6763c-3.8840942 5.1795654 -7.2980347 7.769348 -10.241821 7.769348c-3.0664062 0 -5.4786377 -1.073822 -7.2366943 -3.2214355c-1.7580566 -2.1476135 -2.637085 -6.274414 -2.637085 -12.380402c0 -13.391022 2.4122314 -26.00299 7.2366943 -37.835968c4.824463 -11.875061 11.100403 -21.22351 18.827759 -28.04535c7.7682495 -6.8639526 12.715393 -10.316986 14.841431 -10.3591zm4.354248 -52.490295c-19.011719 0 -36.83777 6.063858 -53.47815 18.191574c-16.599487 12.085617 -29.846375 27.982193 -39.74066 47.689743c-0.17608643 0.35006714 -0.35064697 0.7005005 -0.5236206 1.0513l0 0c-8.847656 2.1254272 -15.438477 3.3330688 -19.77246 3.6229248c-1.6762695 -16.507172 -9.015259 -32.31952 -22.016785 -47.437073c-13.001587 -15.159653 -30.234802 -22.739487 -51.699677 -22.739487c-17.130981 0 -32.749237 4.758438 -46.854706 14.275345c-14.064606 9.474777 -25.021881 22.549988 -32.871887 39.225616c-7.850006 16.633484 -11.775024 35.372528 -11.775024 56.21704c0 4.3450317 0.23153687 8.611145 0.6945801 12.798248l0 0c-3.6638489 4.0419617 -6.821411 7.271515 -9.472717 9.688568c-6.0101624 5.516449 -10.527985 8.274658 -13.553528 8.274658c-2.044281 0 -3.0664062 -2.4845276 -3.0664062 -7.4535217c0 -6.653412 2.3304749 -20.949799 6.9914246 -42.88919c5.6421814 -26.9505 8.463287 -45.773712 8.463287 -56.469696c0 -22.192047 -10.773315 -33.28807 -32.319946 -33.28807c-15.372925 0 -31.318237 7.811432 -47.835968 23.434296c-7.236206 6.8426514 -13.671997 15.557404 -19.307373 26.144241c1.014801 -6.819397 1.5221863 -12.249542 1.5221863 -16.290466c0 -10.569641 -2.5553284 -18.76007 -7.6660156 -24.571274c-5.1106873 -5.811203 -13.22644 -8.716797 -24.34729 -8.716797c-10.384888 0 -21.076431 3.8109589 -32.07463 11.432907c-10.899658 7.539963 -21.293625 18.600876 -31.18187 33.18277l0 0c3.4524994 -13.582184 5.178726 -22.663925 5.178726 -27.24524c0 -6.6112976 -1.9420471 -11.159195 -5.826172 -13.643692c-3.843216 -2.484497 -9.03566 -3.7267456 -15.577362 -3.7267456c-10.834625 0 -19.563675 2.2318268 -26.187119 6.695511c-6.5825653 4.463684 -11.263962 11.369736 -14.044159 20.718185c-9.567192 31.035172 -14.350784 63.79689 -14.350784 98.28511c0 23.750122 2.3509216 41.899597 7.0527344 54.448425c4.7427216 12.548798 13.676178 18.823212 26.800415 18.823212c10.180481 0 17.682968 -2.8424072 22.507431 -8.527283c4.865387 -5.7269897 8.831268 -15.3280945 11.897675 -28.803345c3.148178 -13.601593 7.3389587 -27.434784 12.572266 -41.499573c5.274231 -14.064758 10.344025 -25.013428 15.209396 -32.845917c1.8363953 -2.9563293 3.3902893 -5.3547363 4.6616974 -7.1951904l0 0c-0.42868042 5.756073 -1.3079681 14.113068 -2.6378784 25.070953c-2.5757751 18.991669 -3.8636627 33.582855 -3.8636627 43.7735c0 13.012054 2.596222 24.613373 7.788666 34.804047c5.192459 10.148529 13.51265 15.222809 24.960571 15.222809c10.344025 0 17.948715 -2.7792664 22.814072 -8.337799c4.8653564 -5.5585327 8.851715 -15.201752 11.959015 -28.929657c3.638794 -15.3280945 8.361053 -29.85611 14.166779 -43.584015c5.8466187 -13.727936 11.30484 -24.255463 16.374634 -31.582611c1.7185974 -2.4639893 3.1806335 -4.5136414 4.386017 -6.1490173l0 0c-0.68182373 6.0848083 -2.1233826 14.577301 -4.3246765 25.47757c-3.597931 19.160126 -5.396881 32.61432 -5.396881 40.36258c0 16.507202 3.9658813 29.434998 11.897644 38.783447c7.972687 9.306366 19.543243 13.959503 34.71176 13.959503c17.498962 0 32.953674 -4.7373657 46.364105 -14.212158c5.1942444 -3.6861877 10.2229 -7.729309 15.085907 -12.129364l0 0c4.345825 5.176178 9.357269 9.766754 15.034424 13.7716675c11.938538 8.379913 26.26889 12.569855 42.991028 12.569855c19.829468 0 37.45108 -7.158722 52.86487 -21.476166c15.454712 -14.359558 25.308105 -31.22467 29.56018 -50.595337c3.048523 -0.12976074 6.116028 -0.36611938 9.202454 -0.7090454l0 0c-0.0045166016 0.46740723 -0.006713867 0.93536377 -0.006713867 1.4038696c0 20.844513 5.3355103 37.96228 16.006653 51.353302c10.711975 13.348938 25.08319 20.023376 43.113647 20.023376c22.73236 0 38.57544 -7.642975 47.529358 -22.928955c0.3270874 1.4738464 4.558716 5.6638184 12.694946 12.569885c8.177063 6.906067 17.355835 10.35907 27.536316 10.35907c11.208801 0 22.401245 -3.91214 33.577393 -11.736389l0 0c0.8421631 1.5454102 1.8270264 2.9519653 2.9545288 4.2197266c4.4973755 5.011139 11.918091 7.5166626 22.262085 7.5166626c10.793762 0 19.154846 -2.3370972 25.083252 -7.011322c5.9283447 -4.674225 9.219666 -12.380402 9.87384 -23.11847c2.2486572 -37.141174 8.994751 -83.27283 20.238281 -138.39502c0.5723877 -4.1688995 0.85858154 -7.0955505 0.85858154 -8.779968c0 -14.443787 -8.01355 -21.665665 -24.04065 -21.665665c-11.897644 0 -20.912903 2.1265564 -27.045715 6.3796844c-6.1328125 4.253113 -10.446228 11.411835 -12.940247 21.476181c-6.6279907 27.542648 -11.916992 57.1696 -15.866882 88.880875l0 0c-5.720276 6.6480713 -10.400757 11.677765 -14.041565 15.089081c-5.887512 5.516449 -10.221313 8.274658 -13.001526 8.274658c-0.57244873 0 -1.1039429 -0.2947693 -1.5945435 -0.8843384c-0.49066162 -0.63165283 -0.7359619 -1.9160156 -0.7359619 -3.8530579c0 -11.074982 2.8619995 -31.245758 8.5859375 -60.5123c3.8432617 -20.970856 5.7648926 -34.42505 5.7648926 -40.36258c0 -14.443787 -8.7699585 -21.665665 -26.309814 -21.665665c-6.2963867 0 -9.832947 0.08421326 -10.609741 0.25265503c-0.4088745 -1.9791718 -2.1669922 -4.7794952 -5.274231 -8.40097c-3.1072998 -3.6214752 -8.626831 -5.432205 -16.558655 -5.432205z" fill-rule="evenodd"/><path fill="#e06666" d="m147.39896 145.77931c0.6758423 -33.80578 56.87729 -21.156174 14.055115 37.913376c-70.93242 -16.757217 -36.59449 -63.083984 -14.055115 -37.913376z" fill-rule="evenodd"/><path fill="#e06666" d="m207.35646 169.6221c12.803146 -24.072174 48.42125 5.5623474 -3.7559052 32.409454c-44.66536 -37.971786 -3.2047272 -58.75197 3.7559052 -32.409454z" fill-rule="evenodd"/></g></svg>